<svg width="432" height="440" viewBox="0 0 432 440" fill="none" xmlns="http://www.w3.org/2000/svg">
<path d="M191.438 54.3287L187.14 51.7892C186.446 51.3808 186.042 50.6119 186.119 49.8167C186.201 48.9758 186.249 48.1349 186.258 47.2989C186.268 46.5012 186.753 45.7853 187.483 45.4537L192.022 43.3899C192.915 42.9839 193.405 42.0181 193.201 41.0643L192.37 37.1794C192.166 36.2256 191.323 35.5385 190.338 35.5241L185.332 35.4544C184.522 35.4424 183.788 34.9739 183.451 34.2435C183.103 33.4891 182.721 32.7468 182.313 32.0236C181.917 31.3221 181.965 30.4595 182.433 29.8037L185.327 25.7554C185.896 24.9602 185.831 23.879 185.175 23.1535L182.498 20.1984C181.84 19.4728 180.764 19.295 179.905 19.7707L175.546 22.1876C174.84 22.5793 173.971 22.536 173.311 22.0723C172.629 21.5942 171.925 21.1401 171.198 20.7149C170.499 20.3041 170.105 19.5305 170.179 18.7304L170.643 13.7932C170.734 12.8226 170.134 11.9168 169.2 11.6141L165.394 10.3816C164.46 10.0789 163.437 10.4585 162.935 11.297L160.38 15.5567C159.967 16.2438 159.193 16.645 158.391 16.5657C157.544 16.484 156.696 16.436 155.853 16.424C155.049 16.412 154.326 15.9339 153.99 15.2083L151.903 10.706C151.493 9.81944 150.518 9.33173 149.555 9.53354L145.638 10.3528C144.675 10.5546 143.984 11.3907 143.972 12.3637L143.907 17.3273C143.897 18.125 143.431 18.8553 142.699 19.1869C141.931 19.5353 141.177 19.9149 140.439 20.3257C139.738 20.7149 138.869 20.6596 138.211 20.196L134.126 17.3225C133.324 16.7579 132.234 16.8204 131.504 17.4715L128.529 20.1239C127.797 20.775 127.619 21.8417 128.102 22.6946L130.544 27.0191C130.94 27.7183 130.897 28.5832 130.428 29.2367C129.946 29.9118 129.49 30.6109 129.062 31.3293C128.649 32.0212 127.869 32.4128 127.062 32.3359L122.082 31.8722C121.102 31.7809 120.192 32.3744 119.887 33.3017L118.648 37.0737C118.343 38.0011 118.727 39.0149 119.572 39.5123L123.871 42.0517C124.565 42.4626 124.968 43.229 124.891 44.0242C124.809 44.8651 124.761 45.706 124.752 46.5397C124.742 47.3373 124.257 48.0533 123.527 48.3848L118.989 50.4486C118.095 50.8546 117.606 51.8204 117.81 52.7742L118.641 56.6591C118.845 57.6129 119.687 58.3 120.672 58.3144L125.676 58.3841C126.481 58.3961 127.218 58.8574 127.552 59.583C127.905 60.347 128.289 61.0942 128.702 61.8245C129.096 62.5213 129.04 63.3838 128.575 64.0325L125.681 68.0783C125.112 68.8735 125.177 69.9547 125.832 70.6803L128.51 73.633C129.168 74.3585 130.244 74.5363 131.103 74.0606L135.462 71.6437C136.168 71.2521 137.037 71.2953 137.697 71.759C138.379 72.2371 139.083 72.6912 139.81 73.1164C140.509 73.5272 140.903 74.3009 140.828 75.1009L140.365 80.0381C140.274 81.0087 140.874 81.9145 141.808 82.2172L145.614 83.4497C146.548 83.7524 147.571 83.3728 148.073 82.5343L150.628 78.2746C151.041 77.5875 151.814 77.1863 152.616 77.2656C153.464 77.3473 154.312 77.3953 155.155 77.4073C155.959 77.4193 156.682 77.8974 157.018 78.623L159.105 83.1253C159.515 84.0119 160.49 84.4996 161.453 84.2978L165.37 83.4785C166.333 83.2767 167.024 82.4406 167.036 81.4676L167.101 76.504C167.111 75.7015 167.584 74.9736 168.321 74.6396C169.082 74.2937 169.829 73.9189 170.559 73.5128C171.265 73.1212 172.136 73.1693 172.797 73.6354L176.881 76.5088C177.683 77.0734 178.774 77.0109 179.504 76.3598L182.479 73.7074C183.211 73.0564 183.389 71.9896 182.906 71.1367L180.464 66.8122C180.068 66.113 180.111 65.2481 180.579 64.5946C181.062 63.9195 181.518 63.2204 181.946 62.502C182.359 61.8101 183.139 61.4185 183.946 61.4954L188.926 61.9591C189.906 62.0504 190.819 61.457 191.121 60.5296L192.36 56.7576C192.665 55.8302 192.281 54.8188 191.436 54.319L191.438 54.3287ZM154.518 63.9364C145.04 63.3862 137.798 55.3233 138.343 45.9246C138.888 36.5283 147.012 29.3568 156.49 29.907C165.968 30.4571 173.21 38.52 172.665 47.9187C172.12 57.315 163.996 64.4865 154.518 63.9364Z" fill="white"/>
<path d="M161.007 84.8811C159.996 84.8811 159.062 84.3021 158.623 83.3555L156.538 78.8531C156.286 78.3078 155.739 77.9522 155.148 77.9426C154.293 77.9306 153.424 77.8825 152.567 77.7984C151.976 77.7432 151.392 78.0363 151.083 78.5528L148.525 82.8125C147.891 83.8672 146.626 84.3405 145.449 83.9585L141.643 82.726C140.464 82.344 139.72 81.222 139.835 79.9943L140.298 75.0571C140.354 74.4613 140.056 73.8823 139.54 73.5772C138.8 73.1423 138.077 72.6786 137.39 72.1957C136.901 71.8498 136.243 71.8161 135.714 72.1092L131.356 74.5262C130.275 75.1244 128.945 74.9058 128.117 73.9904L125.439 71.0353C124.608 70.1176 124.529 68.7745 125.25 67.7703L128.143 63.7244C128.491 63.2391 128.53 62.5952 128.242 62.0835C127.824 61.3483 127.432 60.5819 127.072 59.8011C126.825 59.2677 126.275 58.917 125.667 58.9074L120.663 58.8377C119.424 58.8209 118.379 57.968 118.123 56.7643L117.292 52.8794C117.032 51.6734 117.642 50.4745 118.768 49.9604L123.307 47.8966C123.854 47.6467 124.215 47.1086 124.222 46.5247C124.234 45.6766 124.282 44.8165 124.363 43.9636C124.421 43.3798 124.121 42.8056 123.6 42.4981L119.302 39.9586C118.235 39.3292 117.758 38.0702 118.142 36.8978L119.381 33.1234C119.765 31.9534 120.901 31.2206 122.128 31.3336L127.108 31.7996C127.716 31.8549 128.299 31.5594 128.607 31.0477C129.039 30.3197 129.507 29.6037 129.997 28.9166C130.34 28.4337 130.374 27.7874 130.081 27.2661L127.639 22.9415C127.031 21.8652 127.252 20.539 128.177 19.7149L131.154 17.0626C132.074 16.2433 133.424 16.1664 134.432 16.8776L138.517 19.751C139.011 20.0993 139.667 20.1378 140.183 19.8495C140.925 19.4387 141.698 19.047 142.481 18.6915C143.019 18.4488 143.372 17.9034 143.379 17.3076L143.444 12.344C143.461 11.1115 144.318 10.0736 145.531 9.82134L149.447 9.00207C150.658 8.74741 151.865 9.35284 152.384 10.47L154.471 14.9724C154.723 15.5177 155.268 15.8733 155.861 15.8829C156.716 15.8949 157.585 15.943 158.443 16.0271C159.029 16.0847 159.617 15.7868 159.927 15.2727L162.482 11.0154C163.116 9.95828 164.381 9.48738 165.558 9.86939L169.364 11.1019C170.543 11.4839 171.287 12.6059 171.172 13.8336L170.708 18.7707C170.653 19.3666 170.951 19.948 171.467 20.2507C172.207 20.6856 172.932 21.1492 173.616 21.6322C174.106 21.9781 174.767 22.0118 175.292 21.7186L179.651 19.3017C180.731 18.7035 182.064 18.9221 182.89 19.8375L185.568 22.7926C186.398 23.7103 186.478 25.0534 185.757 26.0576L182.864 30.1059C182.516 30.5912 182.48 31.2399 182.772 31.7564C183.188 32.4916 183.577 33.2508 183.93 34.0148C184.18 34.5553 184.732 34.9109 185.337 34.9181L190.344 34.9878C191.583 35.0046 192.627 35.8575 192.884 37.0612L193.715 40.9461C193.974 42.1521 193.365 43.351 192.238 43.8651L187.7 45.9289C187.152 46.1788 186.792 46.7169 186.785 47.3008C186.773 48.1488 186.725 49.0089 186.643 49.8618C186.586 50.4457 186.886 51.0199 187.407 51.3274L191.705 53.8669C192.771 54.4963 193.249 55.7552 192.865 56.9277L191.626 60.702C191.242 61.8721 190.108 62.6072 188.879 62.4919L183.899 62.0258C183.291 61.9706 182.708 62.2661 182.4 62.7778C181.963 63.513 181.495 64.229 181.01 64.9089C180.667 65.3918 180.633 66.0381 180.926 66.5594L183.368 70.884C183.976 71.9603 183.755 73.2865 182.83 74.1105L179.855 76.7629C178.935 77.5822 177.586 77.6591 176.575 76.9479L172.49 74.0745C171.998 73.7261 171.338 73.6901 170.812 73.9808C170.07 74.394 169.304 74.7785 168.535 75.1268C167.99 75.3743 167.635 75.9197 167.625 76.5155L167.56 81.4791C167.543 82.7116 166.686 83.7495 165.474 84.0018L161.557 84.821C161.372 84.8595 161.187 84.8787 161.005 84.8787L161.007 84.8811ZM152.42 76.7365C152.502 76.7365 152.586 76.7413 152.667 76.7485C153.496 76.8278 154.336 76.8759 155.162 76.8879C156.159 76.9023 157.076 77.4981 157.499 78.4111L159.583 82.9134C159.893 83.5813 160.616 83.9417 161.343 83.7903L165.26 82.9711C165.985 82.8197 166.497 82.2023 166.506 81.4695L166.571 76.5059C166.583 75.5016 167.186 74.5838 168.101 74.1682C168.843 73.8319 169.582 73.4595 170.3 73.0606C171.177 72.5753 172.276 72.633 173.1 73.212L177.185 76.0854C177.792 76.5131 178.601 76.4674 179.151 75.9749L182.127 73.3225C182.676 72.8348 182.806 72.0468 182.446 71.4077L180.004 67.0832C179.509 66.2062 179.567 65.1131 180.148 64.2986C180.616 63.6427 181.068 62.9508 181.49 62.2421C182.004 61.3796 182.989 60.887 183.995 60.9783L188.975 61.4444C189.715 61.5189 190.389 61.0744 190.62 60.3777L191.859 56.6057C192.087 55.909 191.804 55.1618 191.167 54.787L186.869 52.2476C185.997 51.731 185.496 50.758 185.592 49.7681C185.671 48.9465 185.719 48.1128 185.728 47.2959C185.743 46.3037 186.343 45.3931 187.263 44.9751L191.801 42.9113C192.474 42.6062 192.836 41.8927 192.683 41.1767L191.852 37.2918C191.698 36.5735 191.071 36.0641 190.329 36.0545L185.323 35.9848C184.314 35.9704 183.39 35.3746 182.969 34.4665C182.628 33.7289 182.251 32.9937 181.85 32.285C181.356 31.4104 181.416 30.3173 182.002 29.498L184.895 25.4498C185.323 24.8539 185.275 24.0563 184.78 23.5133L182.103 20.5582C181.605 20.0105 180.806 19.8783 180.16 20.2387L175.802 22.6556C174.923 23.1433 173.823 23.0857 173.004 22.5091C172.341 22.043 171.642 21.5937 170.927 21.1733C170.058 20.6639 169.556 19.6861 169.649 18.6819L170.113 13.7447C170.183 13.0167 169.738 12.3464 169.032 12.1182L165.226 10.8857C164.518 10.6574 163.761 10.9385 163.384 11.5704L160.829 15.8277C160.311 16.6926 159.333 17.1947 158.337 17.0914C157.506 17.0121 156.668 16.964 155.842 16.952C154.845 16.9376 153.928 16.3418 153.506 15.4288L151.419 10.9265C151.109 10.2586 150.386 9.89822 149.659 10.0496L145.742 10.8688C145.017 11.0202 144.506 11.6376 144.496 12.3704L144.431 17.3316C144.419 18.3383 143.821 19.2537 142.911 19.6669C142.152 20.0105 141.405 20.3876 140.69 20.7841C139.821 21.2694 138.723 21.2045 137.902 20.6255L133.817 17.7521C133.21 17.3244 132.401 17.3701 131.851 17.8626L128.873 20.515C128.326 21.0027 128.194 21.7907 128.554 22.4298L130.996 26.7519C131.491 27.6289 131.433 28.722 130.852 29.5389C130.379 30.202 129.927 30.8939 129.509 31.5954C128.996 32.4579 128.009 32.9505 127.005 32.8592L122.025 32.3931C121.283 32.3162 120.61 32.7631 120.38 33.4598L119.141 37.2318C118.913 37.9261 119.196 38.6757 119.832 39.0505L124.131 41.5899C125.002 42.1065 125.504 43.0795 125.408 44.0694C125.329 44.891 125.281 45.7247 125.271 46.5416C125.257 47.5338 124.654 48.4444 123.737 48.8624L119.198 50.9262C118.526 51.2313 118.163 51.9448 118.317 52.6608L119.148 56.5457C119.302 57.264 119.928 57.771 120.67 57.783L125.675 57.8526C126.686 57.8671 127.608 58.4581 128.023 59.359C128.371 60.111 128.751 60.8534 129.154 61.5621C129.644 62.4295 129.584 63.5202 128.996 64.3395L126.102 68.3853C125.675 68.9812 125.723 69.7788 126.217 70.3218L128.895 73.2769C129.392 73.8246 130.191 73.9568 130.837 73.5964L135.196 71.1795C136.075 70.6917 137.174 70.7494 137.993 71.326C138.656 71.7921 139.355 72.2414 140.07 72.6618C140.94 73.1712 141.441 74.149 141.348 75.1532L140.884 80.0904C140.815 80.8184 141.259 81.4887 141.965 81.7169L145.771 82.9494C146.479 83.1777 147.236 82.8966 147.613 82.2647L150.17 78.005C150.646 77.2122 151.508 76.7293 152.415 76.7293L152.42 76.7365ZM155.535 64.4932C155.186 64.4932 154.838 64.4836 154.488 64.462C144.734 63.895 137.254 55.5654 137.816 45.8929C138.377 36.2203 146.77 28.8061 156.522 29.3755C166.276 29.9425 173.753 38.2721 173.194 47.9446C172.653 57.2712 164.835 64.4908 155.535 64.4908V64.4932ZM154.55 63.4073C163.713 63.9359 171.611 56.9757 172.14 47.887C172.665 38.7958 165.634 30.9684 156.462 30.435C147.296 29.9041 139.4 36.8666 138.872 45.9553C138.346 55.0465 145.377 62.8739 154.55 63.4073Z" fill="#031930"/>
<path d="M90.1681 100.932C89.3924 100.932 88.6744 100.488 88.3383 99.7621L86.8591 96.5691C86.7054 96.2352 86.3716 96.0189 86.009 96.0117C85.4039 96.0045 84.782 95.9685 84.1648 95.9084C83.8046 95.8748 83.4468 96.055 83.2571 96.3697L81.4442 99.3921C80.9567 100.204 79.9842 100.565 79.0837 100.271L76.3846 99.3969C75.4794 99.1038 74.9078 98.2413 74.9967 97.2995L75.3257 93.7966C75.3593 93.4338 75.1768 93.0782 74.8622 92.8932C74.3339 92.5833 73.8177 92.2518 73.3254 91.9058C73.0252 91.6944 72.6218 91.6752 72.3 91.853L69.2096 93.5684C68.3811 94.0272 67.3582 93.8591 66.7218 93.1575L64.8224 91.0625C64.1837 90.3586 64.1237 89.3255 64.676 88.5543L66.7291 85.6833C66.9404 85.3878 66.9644 84.9961 66.7891 84.6838C66.4865 84.1505 66.2056 83.6027 65.9534 83.0549C65.8046 82.7306 65.466 82.5167 65.0962 82.5119L61.5447 82.4615C60.5938 82.4495 59.7917 81.7936 59.5948 80.8686L59.0065 78.1129C58.8072 77.1855 59.2754 76.263 60.1423 75.8713L63.3624 74.4082C63.6986 74.2568 63.9171 73.9277 63.9219 73.5745C63.9291 72.9739 63.9628 72.3588 64.0228 71.7438C64.0564 71.3882 63.8739 71.0399 63.5569 70.8501L60.5073 69.0482C59.6885 68.5629 59.3211 67.597 59.6164 66.6961L60.4953 64.0197C60.7907 63.1235 61.6455 62.5613 62.6036 62.643L66.1359 62.9722C66.4985 63.0082 66.8659 62.828 67.0532 62.5133C67.3606 61.9968 67.6944 61.485 68.0474 60.9925C68.2587 60.697 68.2779 60.303 68.0978 59.9858L66.3665 56.9178C65.9006 56.0913 66.0711 55.0703 66.7795 54.4384L68.8902 52.5572C69.5962 51.9278 70.6312 51.8677 71.4068 52.4155L74.3051 54.4528C74.6077 54.6666 75.0087 54.6907 75.3233 54.5153C75.854 54.2198 76.4063 53.9411 76.9658 53.6888C77.2923 53.5399 77.5084 53.2083 77.5132 52.8455L77.5589 49.3258C77.5709 48.3792 78.2312 47.5816 79.1629 47.387L81.9412 46.8056C82.8681 46.6086 83.7974 47.0747 84.196 47.9324L85.6752 51.1253C85.8289 51.4593 86.1627 51.6755 86.5253 51.6803C87.14 51.6899 87.7596 51.7235 88.3695 51.7836C88.7249 51.8148 89.0875 51.6371 89.2748 51.3199L91.0877 48.2999C91.5728 47.4879 92.5453 47.1275 93.4482 47.4206L96.1497 48.2951C97.055 48.5882 97.6265 49.4508 97.5376 50.3925L97.2086 53.8954C97.175 54.2582 97.3575 54.6138 97.6721 54.7988C98.1956 55.1063 98.7142 55.4379 99.2065 55.7862C99.5067 55.9976 99.9101 56.0193 100.234 55.8391L103.327 54.1237C104.156 53.6648 105.179 53.833 105.815 54.5345L107.714 56.6295C108.353 57.3334 108.413 58.3641 107.861 59.1377L105.808 62.0088C105.596 62.3043 105.575 62.7007 105.752 63.0154C106.05 63.5416 106.329 64.0845 106.581 64.6299C106.735 64.9591 107.073 65.1777 107.443 65.1825L110.994 65.2306C111.945 65.245 112.747 65.8985 112.944 66.8234L113.533 69.5791C113.732 70.5065 113.264 71.4291 112.397 71.8231L109.177 73.2862C108.843 73.4376 108.622 73.7667 108.617 74.1223C108.61 74.7277 108.574 75.3428 108.516 75.953C108.483 76.3062 108.665 76.657 108.982 76.8468L112.032 78.6463C112.851 79.1316 113.218 80.0974 112.923 80.9983L112.044 83.6747C111.748 84.5709 110.891 85.1355 109.935 85.0514L106.403 84.7223C106.031 84.6862 105.673 84.8688 105.486 85.1811C105.171 85.7073 104.838 86.219 104.492 86.7043C104.283 86.9974 104.261 87.3915 104.441 87.711L106.173 90.7766C106.639 91.6031 106.47 92.6218 105.76 93.256L103.649 95.1372C102.943 95.7667 101.908 95.8267 101.132 95.2814L98.234 93.2416C97.9314 93.0278 97.528 93.0062 97.2062 93.1839C96.6731 93.4795 96.128 93.7533 95.5806 94.0032C95.2468 94.1546 95.0307 94.4861 95.0259 94.8489L94.9802 98.371C94.9682 99.3176 94.3079 100.115 93.3762 100.31L90.5979 100.891C90.4562 100.92 90.3145 100.935 90.1753 100.935L90.1681 100.932ZM84.076 94.8465C84.1384 94.8465 84.2032 94.8489 84.2657 94.8561C84.854 94.9114 85.4447 94.945 86.0234 94.9522C86.7894 94.9642 87.493 95.4231 87.8172 96.1222L89.2964 99.3152C89.4861 99.7236 89.9279 99.9423 90.3746 99.851L93.1529 99.2696C93.5971 99.1759 93.9093 98.8011 93.9141 98.3542L93.9597 94.8321C93.9693 94.0609 94.4303 93.3545 95.1363 93.035C95.6574 92.7995 96.1785 92.5353 96.6852 92.2542C97.3575 91.8794 98.2004 91.925 98.8343 92.3695L101.733 94.4092C102.105 94.6711 102.6 94.6423 102.938 94.342L105.049 92.4608C105.383 92.1629 105.464 91.6824 105.243 91.2932L103.512 88.2251C103.133 87.55 103.176 86.7115 103.622 86.0821C103.951 85.6208 104.271 85.1331 104.569 84.6334C104.962 83.9727 105.716 83.5931 106.492 83.6627L110.024 83.9919C110.485 84.0399 110.891 83.766 111.03 83.3408L111.909 80.6644C112.049 80.2415 111.876 79.7851 111.487 79.5544L108.437 77.7525C107.767 77.3561 107.383 76.6065 107.455 75.8449C107.513 75.2659 107.544 74.6797 107.551 74.1031C107.561 73.3391 108.024 72.6399 108.73 72.318L111.95 70.8549C112.361 70.6675 112.582 70.2326 112.488 69.7954L111.9 67.0397C111.806 66.6 111.422 66.2901 110.968 66.2829L107.417 66.2348C106.641 66.2252 105.933 65.7663 105.608 65.0696C105.368 64.5506 105.104 64.0341 104.821 63.5344C104.441 62.8617 104.487 62.0208 104.936 61.3913L106.989 58.5203C107.248 58.1575 107.22 57.6698 106.919 57.3383L105.02 55.2432C104.722 54.9141 104.22 54.83 103.829 55.0462L100.736 56.7616C100.064 57.1364 99.2185 57.0908 98.5894 56.6487C98.1187 56.3196 97.6265 56.0024 97.127 55.7093C96.4594 55.3177 96.0728 54.5657 96.1449 53.7945L96.4738 50.2916C96.5147 49.8472 96.2457 49.4387 95.8135 49.2994L93.112 48.4249C92.6774 48.2831 92.2139 48.4561 91.9834 48.8429L90.1704 51.8653C89.7718 52.5284 89.0202 52.9128 88.2542 52.8359C87.6731 52.7807 87.0824 52.747 86.4965 52.7374C85.7305 52.7278 85.0269 52.2689 84.7027 51.5674L83.2235 48.3744C83.0338 47.966 82.592 47.7474 82.1453 47.8387L79.367 48.4201C78.9228 48.5114 78.6106 48.891 78.6058 49.3378L78.5602 52.8575C78.5506 53.6311 78.092 54.3351 77.3932 54.6522C76.8601 54.8925 76.3342 55.1592 75.8275 55.4403C75.16 55.8102 74.3195 55.7646 73.6856 55.3201L70.7872 53.2828C70.4222 53.0233 69.9156 53.0545 69.5818 53.3501L67.471 55.2312C67.1373 55.5291 67.0556 56.0097 67.2765 56.3989L69.0079 59.4669C69.3873 60.1396 69.3441 60.9805 68.895 61.6099C68.5612 62.0784 68.2419 62.5661 67.9489 63.0587C67.5527 63.7218 66.8011 64.099 66.0255 64.0293L62.4932 63.7001C62.0417 63.6545 61.6263 63.926 61.487 64.3512L60.6082 67.0276C60.4689 67.4529 60.6418 67.907 61.0308 68.1376L64.0804 69.9395C64.7504 70.3359 65.137 71.0855 65.0626 71.8471C65.0049 72.4309 64.9737 73.0171 64.9665 73.5889C64.9569 74.3529 64.4935 75.0521 63.7875 75.374L60.5697 76.8372C60.1591 77.0246 59.9382 77.4594 60.0295 77.8943L60.6178 80.65C60.7114 81.0896 61.0956 81.3996 61.5495 81.4044L65.101 81.4548C65.8766 81.4644 66.585 81.9209 66.9043 82.6128C67.1445 83.1342 67.4134 83.6579 67.7016 84.1649C68.0786 84.8328 68.0306 85.6712 67.5791 86.3007L65.526 89.1717C65.2667 89.5345 65.2955 90.0222 65.5956 90.3538L67.4951 92.4488C67.7952 92.7779 68.2947 92.862 68.6861 92.6458L71.7766 90.9304C72.4513 90.558 73.2942 90.6012 73.9233 91.0433C74.3916 91.3724 74.8838 91.6872 75.3857 91.9827C76.0533 92.3743 76.4399 93.1263 76.3678 93.8975L76.0389 97.4004C75.998 97.8449 76.2694 98.2533 76.6992 98.3926L79.4007 99.2671C79.8329 99.4065 80.2963 99.2335 80.5293 98.8491L82.3422 95.8267C82.7072 95.2189 83.37 94.8465 84.0688 94.8465H84.076ZM86.2948 86.4689C86.0426 86.4689 85.7881 86.4617 85.5336 86.4473C78.529 86.0412 73.1573 80.0589 73.5607 73.1108C73.7552 69.7449 75.2608 66.6576 77.799 64.4161C80.3372 62.1769 83.6053 61.0502 86.9935 61.2496C90.3866 61.4466 93.4986 62.9409 95.7607 65.4588C98.0227 67.979 99.1609 71.2201 98.9664 74.586C98.7719 77.9519 97.2663 81.0416 94.7281 83.2807C92.382 85.3517 89.4116 86.4689 86.2948 86.4689ZM86.2347 62.2851C83.3748 62.2851 80.6517 63.3109 78.5002 65.2089C76.1757 67.2607 74.795 70.0885 74.6173 73.1709C74.2475 79.5352 79.1725 85.0178 85.596 85.3902C88.7081 85.5703 91.7025 84.5397 94.0293 82.4855C96.3538 80.4337 97.7345 77.606 97.9122 74.5235C98.0899 71.4411 97.0477 68.474 94.9754 66.1651C92.9007 63.8563 90.0456 62.4845 86.9335 62.3043C86.7006 62.2899 86.4677 62.2851 86.2347 62.2851Z" fill="#031930"/>
<path d="M209.667 19.3839C209.473 19.3839 209.285 19.2758 209.194 19.0908C209.064 18.8289 209.17 18.5118 209.432 18.3797L213.101 16.5417C213.363 16.412 213.68 16.5177 213.812 16.7796C213.941 17.0415 213.836 17.3586 213.574 17.4907L209.905 19.3287C209.828 19.3671 209.749 19.3839 209.67 19.3839H209.667Z" fill="#031930"/>
<path d="M201.12 23.6632C200.926 23.6632 200.738 23.5551 200.647 23.3701C200.518 23.1082 200.623 22.7911 200.885 22.659L204.554 20.821C204.816 20.6913 205.133 20.797 205.265 21.0589C205.395 21.3208 205.289 21.6379 205.027 21.77L201.358 23.608C201.281 23.6464 201.202 23.6632 201.123 23.6632H201.12Z" fill="#031930"/>
<path d="M206.006 18.1663C205.812 18.1663 205.624 18.0582 205.533 17.8732L203.696 14.2021C203.566 13.9402 203.672 13.6231 203.934 13.4909C204.195 13.3612 204.512 13.4669 204.644 13.7288L206.481 17.3999C206.611 17.6617 206.506 17.9789 206.244 18.111C206.167 18.1494 206.088 18.1663 206.008 18.1663H206.006Z" fill="#031930"/>
<path d="M210.285 26.7171C210.091 26.7171 209.904 26.609 209.812 26.424L207.975 22.7529C207.846 22.4911 207.951 22.1739 208.213 22.0418C208.475 21.9121 208.792 22.0178 208.924 22.2772L210.761 25.9483C210.89 26.2102 210.785 26.5273 210.523 26.6594C210.446 26.6979 210.367 26.7147 210.288 26.7147L210.285 26.7171Z" fill="#031930"/>
<path d="M268.071 297.789L181.898 298.329C181.339 298.329 181.156 298.848 181.156 299.348V372.702C181.156 379.724 132.194 397.972 131.718 397.044L131.658 404.807C131.656 406.253 132.924 407.534 134.545 407.534H207.894C211.247 407.534 214.558 406.782 217.593 405.511L257.318 388.775C264.469 385.762 268.981 379.292 268.981 372.233V298.805C268.981 298.307 268.63 297.786 268.073 297.786L268.071 297.789Z" fill="#031930"/>
<path d="M172.431 294.055V367.425C172.431 374.657 167.78 381.247 160.47 384.37L133.672 395.814C131.921 396.561 132.517 398.908 134.459 398.908H208.088C211.399 398.908 214.67 398.255 217.664 396.993L247.356 384.486C254.721 381.384 259.418 374.768 259.418 367.498V294.055C259.418 293.754 259.144 293.512 258.808 293.512H173.043C172.707 293.512 172.433 293.754 172.433 294.055H172.431Z" fill="white"/>
<path d="M208.087 399.437H134.458C133.111 399.437 132.326 398.553 132.146 397.676C131.944 396.694 132.475 395.75 133.464 395.327L160.263 383.883C167.334 380.863 171.904 374.403 171.904 367.426V294.055C171.904 293.464 172.416 292.981 173.042 292.981H258.807C259.434 292.981 259.945 293.462 259.945 294.055V367.498C259.945 374.944 255.082 381.803 247.559 384.974L217.867 397.482C214.827 398.762 211.446 399.44 208.087 399.44V399.437ZM172.961 294.067V367.426C172.961 374.828 168.139 381.671 160.678 384.856L133.88 396.3C133.342 396.53 133.08 396.965 133.183 397.463C133.277 397.919 133.707 398.378 134.458 398.378H208.087C211.307 398.378 214.546 397.729 217.457 396.504L247.149 383.996C254.28 380.993 258.888 374.516 258.888 367.496V294.053C258.888 294.067 258.86 294.039 258.807 294.039H173.042C172.997 294.039 172.97 294.055 172.961 294.065V294.067Z" fill="#031930"/>
<path d="M11.9043 335.632L366.236 336.405L372.388 336.42L383.828 336.444C387.08 336.444 389.75 333.904 390.163 330.671L419.79 99.0214C420.51 93.3851 416.404 88.0635 410.737 88.0635L43.6253 88.3974L11.9043 335.632Z" fill="#031930"/>
<path d="M396.967 88.0078C403.357 88.0078 408.553 94.4466 407.734 100.804L377.896 330.677C377.48 333.909 374.736 336.331 371.487 336.331L368.689 336.436L6.99262 336.331C3.09533 336.331 0.0841079 332.895 0.583576 329.02L31.0247 94.4682C31.4402 91.2368 33.9255 88.0078 37.1744 88.0078H396.967Z" fill="white"/>
<path d="M368.708 336.967L6.99209 336.861C4.98702 336.861 3.07559 335.996 1.74768 334.487C0.417361 332.974 -0.19977 330.955 0.0571679 328.952L30.5007 94.4002C30.9378 90.9982 33.5552 87.4785 37.1739 87.4785H396.964C400.016 87.4785 403.027 88.9104 405.225 91.4091C407.547 94.0494 408.68 97.586 408.257 100.87L378.419 330.746C377.97 334.232 374.99 336.861 371.486 336.861L368.71 336.967H368.708ZM37.1739 88.538C34.1747 88.538 31.9199 91.6517 31.5501 94.5371L1.10893 329.089C0.890416 330.79 1.4139 332.503 2.5449 333.788C3.67111 335.069 5.29198 335.804 6.9945 335.804L368.691 335.912L371.467 335.806C374.462 335.806 376.99 333.574 377.372 330.614L407.21 100.738C407.595 97.7517 406.555 94.5275 404.432 92.1106C402.437 89.8402 399.716 88.538 396.966 88.538H37.1739Z" fill="#031930"/>
<path d="M380.637 99.8061C386.484 99.8061 391.236 105.558 390.489 111.235L363.191 316.55C362.812 319.438 360.3 321.598 357.328 321.598L354.768 321.694L23.8627 321.598C20.2968 321.598 17.5425 318.53 17.9987 315.068L45.8489 105.575C46.2283 102.687 48.5023 99.8037 51.4751 99.8037H380.639L380.637 99.8061Z" fill="white"/>
<path d="M354.786 322.223L23.8619 322.129C21.9841 322.129 20.2024 321.327 18.9777 319.928C17.7891 318.571 17.2416 316.774 17.4745 314.998L45.3247 105.505C45.7281 102.444 48.139 99.2754 51.4744 99.2754H380.636C383.494 99.2754 386.296 100.602 388.325 102.915C390.419 105.306 391.399 108.362 391.012 111.302L363.714 316.618C363.301 319.758 360.554 322.127 357.327 322.127L354.789 322.22L354.786 322.223ZM51.472 100.335C48.7537 100.335 46.7078 103.091 46.3692 105.644L18.519 315.138C18.3245 316.61 18.7808 318.102 19.7677 319.229C20.7931 320.399 22.2819 321.069 23.8571 321.069L354.762 321.166L357.3 321.072C360.019 321.072 362.314 319.099 362.66 316.483L389.96 111.168C390.308 108.532 389.42 105.779 387.525 103.619C385.698 101.534 383.186 100.34 380.631 100.34H51.472V100.335Z" fill="#031930"/>
<path d="M311.565 298.223L91.3213 294.335C90.5385 294.321 90.0126 293.735 90.0943 292.966L114.732 64.7257C114.83 63.808 115.745 63.0127 116.679 63.0296L336.923 66.9168C337.706 66.9313 338.232 67.5175 338.15 68.2863L313.513 296.526C313.414 297.444 312.499 298.239 311.565 298.223Z" fill="white"/>
<path d="M311.596 298.753H311.557L91.3135 294.866C90.7804 294.856 90.3073 294.647 89.9808 294.277C89.659 293.912 89.5149 293.427 89.5701 292.91L114.207 64.6704C114.337 63.4739 115.475 62.4817 116.69 62.5033L336.934 66.3906C337.467 66.4002 337.94 66.6092 338.265 66.9792C338.586 67.3444 338.733 67.8297 338.675 68.3462L314.038 296.586C313.911 297.771 312.796 298.753 311.593 298.753H311.596ZM116.652 63.5604C116.001 63.5604 115.326 64.149 115.259 64.7833L90.6219 293.023C90.5979 293.244 90.6507 293.437 90.7756 293.578C90.9029 293.722 91.0998 293.804 91.3327 293.807L311.577 297.694C312.237 297.682 312.919 297.11 312.989 296.471L337.626 68.2309C337.65 68.0099 337.597 67.8177 337.472 67.6783C337.345 67.5342 337.148 67.4525 336.915 67.4501L116.671 63.5628H116.652V63.5604Z" fill="#031930"/>
<path d="M298.081 201.303H298.071L132.769 198.386C132.62 198.384 132.481 198.319 132.382 198.206C132.284 198.096 132.238 197.947 132.253 197.8L133.021 190.691C133.05 190.42 133.264 190.201 133.557 190.218L298.859 193.134C299.008 193.137 299.147 193.202 299.246 193.315C299.344 193.425 299.39 193.574 299.375 193.721L298.609 200.83C298.58 201.099 298.352 201.303 298.083 201.303H298.081ZM133.364 197.339L297.605 200.236L298.259 194.184L134.018 191.284L133.364 197.336V197.339Z" fill="#031930"/>
<path d="M253.396 214.537H253.386L131.259 212.382C131.11 212.379 130.971 212.314 130.873 212.201C130.774 212.091 130.728 211.942 130.743 211.795L131.511 204.686C131.54 204.412 131.766 204.206 132.047 204.213L254.174 206.368C254.323 206.371 254.462 206.435 254.561 206.548C254.659 206.659 254.705 206.808 254.69 206.954L253.922 214.063C253.893 214.333 253.665 214.537 253.396 214.537ZM131.855 211.334L252.921 213.47L253.574 207.418L132.508 205.282L131.855 211.334Z" fill="#031930"/>
<path d="M293.997 239.167H293.987L128.685 236.251C128.536 236.248 128.397 236.183 128.298 236.07C128.2 235.96 128.154 235.811 128.169 235.664L128.937 228.555C128.966 228.284 129.177 228.082 129.473 228.082L294.775 230.999C294.924 231.001 295.063 231.066 295.162 231.179C295.26 231.289 295.306 231.438 295.291 231.585L294.523 238.694C294.494 238.963 294.266 239.167 293.997 239.167ZM129.28 235.203L293.521 238.101L294.175 232.049L129.934 229.149L129.28 235.201V235.203Z" fill="#031930"/>
<path d="M249.31 252.398H249.301L127.171 250.243C127.022 250.24 126.883 250.176 126.785 250.063C126.686 249.952 126.641 249.803 126.655 249.657L127.423 242.548C127.452 242.276 127.675 242.084 127.959 242.074L250.086 244.229C250.235 244.232 250.374 244.297 250.473 244.409C250.571 244.52 250.617 244.669 250.602 244.815L249.836 251.925C249.808 252.194 249.579 252.398 249.31 252.398ZM127.769 249.195L248.835 251.331L249.488 245.279L128.422 243.143L127.769 249.195Z" fill="#031930"/>
<path d="M289.339 272.341H289.329L124.027 269.425C123.878 269.422 123.739 269.357 123.64 269.244C123.542 269.134 123.496 268.985 123.51 268.838L124.279 261.729C124.308 261.458 124.538 261.23 124.814 261.256L290.117 264.173C290.266 264.175 290.405 264.24 290.503 264.353C290.602 264.463 290.647 264.612 290.633 264.759L289.867 271.868C289.838 272.137 289.61 272.341 289.341 272.341H289.339ZM124.622 268.375L288.863 271.275L289.516 265.223L125.275 262.325L124.622 268.377V268.375Z" fill="#031930"/>
<path d="M244.654 285.572H244.644L122.517 283.417C122.368 283.415 122.229 283.35 122.13 283.237C122.032 283.127 121.986 282.978 122.001 282.831L122.769 275.722C122.798 275.451 123.04 275.234 123.305 275.249L245.432 277.404C245.581 277.406 245.72 277.471 245.818 277.584C245.917 277.694 245.962 277.843 245.948 277.99L245.18 285.099C245.151 285.368 244.923 285.572 244.654 285.572ZM123.112 282.37L244.178 284.506L244.831 278.454L123.766 276.318L123.112 282.37Z" fill="#031930"/>
<path d="M256.47 127.677H174.146L182.369 164.056C182.964 166.689 185.49 168.556 188.458 168.556H239.942C242.912 168.556 245.539 166.689 246.276 164.056L256.468 127.677H256.47Z" fill="white"/>
<path d="M239.944 169.085H188.46C185.223 169.085 182.508 167.064 181.854 164.174L173.632 127.795C173.596 127.639 173.635 127.473 173.736 127.348C173.836 127.223 173.988 127.148 174.149 127.148H256.472C256.638 127.148 256.794 127.225 256.892 127.357C256.993 127.49 257.024 127.66 256.981 127.821L246.79 164.2C245.983 167.076 243.171 169.087 239.946 169.087L239.944 169.085ZM174.809 128.206L182.887 163.938C183.43 166.346 185.723 168.025 188.46 168.025H239.944C242.696 168.025 245.09 166.334 245.77 163.912L255.773 128.206H174.809Z" fill="#031930"/>
<path d="M256.824 125.179H173.924C172.205 125.179 170.848 123.784 170.894 122.063C170.939 120.343 172.373 118.947 174.092 118.947H256.992C258.711 118.947 260.068 120.343 260.022 122.063C259.977 123.784 258.543 125.179 256.824 125.179Z" fill="white"/>
<path d="M256.824 125.71H173.924C172.949 125.71 172.041 125.328 171.366 124.639C170.694 123.947 170.336 123.027 170.363 122.051C170.418 120.05 172.089 118.421 174.092 118.421H256.992C257.967 118.421 258.874 118.803 259.549 119.492C260.221 120.184 260.579 121.105 260.553 122.08C260.498 124.081 258.826 125.71 256.826 125.71H256.824ZM174.092 119.478C172.658 119.478 171.46 120.646 171.422 122.08C171.402 122.767 171.652 123.416 172.125 123.901C172.596 124.386 173.235 124.653 173.924 124.653H256.824C258.257 124.653 259.455 123.485 259.494 122.051C259.513 121.364 259.263 120.715 258.79 120.23C258.32 119.745 257.681 119.478 256.992 119.478H174.092Z" fill="#031930"/>
<path d="M200.276 134.125H191.833C190.253 134.125 189.043 135.425 189.348 136.792L194.665 160.627C194.888 161.624 195.865 162.333 197.018 162.333H199.417C200.778 162.333 201.912 161.353 201.948 160.147L202.675 136.311C202.711 135.103 201.638 134.125 200.276 134.125Z" fill="white"/>
<path d="M199.415 162.865H197.017C195.607 162.865 194.428 161.993 194.149 160.743L188.833 136.908C188.665 136.161 188.857 135.373 189.356 134.748C189.935 134.027 190.86 133.595 191.835 133.595H200.278C201.125 133.595 201.927 133.921 202.479 134.491C202.967 134.995 203.226 135.646 203.205 136.326L202.477 160.162C202.431 161.651 201.058 162.862 199.418 162.862L199.415 162.865ZM191.832 134.657C191.177 134.657 190.559 134.94 190.18 135.413C189.878 135.791 189.765 136.24 189.863 136.68L195.18 160.515C195.348 161.265 196.118 161.808 197.017 161.808H199.415C200.491 161.808 201.389 161.056 201.418 160.133L202.146 136.298C202.158 135.906 202.006 135.529 201.718 135.231C201.363 134.866 200.839 134.657 200.278 134.657H191.835H191.832Z" fill="#031930"/>
<path d="M241.809 136.793C242.198 135.426 241.062 134.126 239.478 134.126H231.006C229.639 134.126 228.504 135.106 228.465 136.312L227.735 160.148C227.699 161.356 228.775 162.334 230.141 162.334H232.55C233.707 162.334 234.73 161.625 235.014 160.628L241.807 136.793H241.809Z" fill="white"/>
<path d="M232.553 162.865H230.144C229.294 162.865 228.487 162.536 227.935 161.966C227.448 161.464 227.191 160.813 227.21 160.133L227.94 136.3C227.986 134.81 229.362 133.6 231.009 133.6H239.481C240.456 133.6 241.363 134.03 241.906 134.75C242.384 135.385 242.535 136.182 242.319 136.939L235.526 160.775C235.175 162.005 233.953 162.865 232.553 162.865ZM231.009 134.657C229.928 134.657 229.025 135.409 228.999 136.331L228.269 160.167C228.257 160.556 228.408 160.933 228.694 161.231C229.049 161.599 229.578 161.81 230.144 161.81H232.553C233.468 161.81 234.291 161.253 234.51 160.486L241.303 136.651C241.428 136.209 241.344 135.762 241.063 135.389C240.717 134.933 240.127 134.659 239.481 134.659H231.009V134.657Z" fill="#031930"/>
<path d="M218.967 134.125H212.494C211.521 134.125 210.712 135.105 210.685 136.311L210.167 160.147C210.14 161.355 210.906 162.333 211.881 162.333H218.355C219.328 162.333 220.137 161.353 220.163 160.147L220.682 136.311C220.708 135.103 219.942 134.125 218.967 134.125Z" fill="white"/>
<path d="M218.352 162.864H211.878C211.336 162.864 210.812 162.636 210.406 162.223C209.9 161.704 209.619 160.945 209.635 160.137L210.154 136.302C210.188 134.81 211.235 133.597 212.491 133.597H218.965C219.507 133.597 220.031 133.825 220.436 134.238C220.943 134.757 221.224 135.516 221.207 136.324L220.689 160.159C220.655 161.651 219.608 162.864 218.352 162.864ZM212.493 134.656C211.818 134.656 211.232 135.42 211.213 136.326L210.694 160.161C210.682 160.685 210.853 161.168 211.165 161.483C211.309 161.632 211.552 161.807 211.881 161.807H218.355C219.029 161.807 219.615 161.043 219.634 160.137L220.153 136.302C220.165 135.778 219.995 135.295 219.685 134.978C219.541 134.832 219.298 134.654 218.969 134.654H212.495L212.493 134.656Z" fill="#031930"/>
<path d="M184.727 124.671C186.532 122.89 186.59 120.02 184.857 118.262C183.124 116.504 180.255 116.524 178.45 118.305C176.645 120.087 176.587 122.956 178.32 124.714C180.053 126.472 182.922 126.453 184.727 124.671Z" fill="#031930"/>
<path d="M181.539 123.3C181.095 123.3 180.653 123.136 180.312 122.807C179.601 122.12 179.599 120.974 180.305 120.244L211.973 87.526C212.679 86.798 213.827 86.762 214.535 87.4491C215.246 88.1362 215.249 89.2822 214.543 90.0126L182.874 122.73C182.507 123.11 182.022 123.3 181.539 123.3Z" fill="white"/>
<path d="M181.539 123.828C180.939 123.828 180.372 123.6 179.945 123.186C179.508 122.764 179.26 122.192 179.248 121.574C179.236 120.94 179.477 120.337 179.923 119.876L211.589 87.1581C212.497 86.2211 213.981 86.1803 214.9 87.0668C215.34 87.4921 215.587 88.0639 215.597 88.6789C215.609 89.3132 215.369 89.9162 214.922 90.3775L183.256 123.095C182.807 123.559 182.18 123.825 181.542 123.825L181.539 123.828ZM213.306 87.4848C212.963 87.4848 212.614 87.6218 212.35 87.8933L180.684 120.611C180.435 120.868 180.3 121.204 180.307 121.555C180.312 121.889 180.447 122.197 180.682 122.422C181.167 122.891 182.012 122.86 182.497 122.358L214.166 89.6399C214.415 89.3828 214.55 89.0465 214.543 88.6957C214.538 88.3618 214.403 88.0542 214.168 87.826C213.93 87.5954 213.621 87.4824 213.306 87.4824V87.4848Z" fill="#031930"/>
<path d="M252.504 124.683C254.309 122.901 254.368 120.032 252.634 118.274C250.901 116.516 248.033 116.535 246.228 118.317C244.422 120.099 244.364 122.968 246.097 124.726C247.831 126.484 250.699 126.465 252.504 124.683Z" fill="#031930"/>
<path d="M249.314 123.299C249.759 123.299 250.21 123.135 250.57 122.806C251.317 122.119 251.384 120.973 250.717 120.243L220.821 87.525C220.156 86.7971 219.01 86.761 218.261 87.4481C217.514 88.1353 217.447 89.2813 218.114 90.0116L248.011 122.729C248.356 123.109 248.832 123.299 249.314 123.299Z" fill="white"/>
<path d="M249.313 123.827C248.667 123.827 248.05 123.558 247.618 123.085L217.722 90.3673C216.86 89.4255 216.942 87.9407 217.902 87.059C218.375 86.6241 218.983 86.4055 219.619 86.4295C220.234 86.4559 220.798 86.7202 221.209 87.1695L251.105 119.887C251.967 120.829 251.885 122.314 250.925 123.195C250.48 123.601 249.909 123.827 249.313 123.827ZM219.513 87.4842C219.184 87.4842 218.867 87.6092 218.618 87.8374C218.087 88.3251 218.034 89.1396 218.502 89.6537L248.398 122.371C248.85 122.866 249.695 122.888 250.209 122.417C250.74 121.929 250.793 121.115 250.322 120.601L220.426 87.8831C220.205 87.6428 219.9 87.5011 219.569 87.4866C219.549 87.4866 219.53 87.4866 219.511 87.4866L219.513 87.4842Z" fill="#031930"/>
<path d="M184.469 100.447C190.659 97.8812 193.599 90.7811 191.035 84.588C188.471 78.3949 181.374 75.4539 175.184 78.0192C168.994 80.5845 166.055 87.6846 168.619 93.8777C171.183 100.071 178.279 103.012 184.469 100.447Z" fill="#031930"/>
<path d="M178.535 96.5089C178.067 96.5353 177.637 96.3239 177.407 95.9491L172.955 89.765C172.595 89.1812 172.82 88.3907 173.457 87.9991C174.093 87.6075 174.9 87.7613 175.26 88.3451L178.567 92.672L183.696 83.7034C184.058 83.0691 184.868 82.7977 185.501 83.098C186.135 83.3983 186.356 84.1575 185.994 84.7917L179.707 95.7809C179.472 96.1941 179.03 96.4704 178.555 96.5041C178.547 96.5041 178.54 96.5041 178.533 96.5041L178.535 96.5089Z" fill="white"/>
<path d="M430.232 311.779L357.043 324.58L284.443 311.854C284.339 311.837 284.339 311.688 284.443 311.671L357.874 298.806L430.232 311.777V311.779Z" fill="white"/>
<path d="M357.042 325.109C357.01 325.109 356.982 325.106 356.95 325.102L284.35 312.375C284.052 312.322 283.836 312.065 283.836 311.763C283.836 311.46 284.052 311.203 284.35 311.15L357.781 298.285C357.844 298.275 357.904 298.275 357.966 298.285L430.324 311.256C430.576 311.301 430.761 311.52 430.759 311.777C430.759 312.034 430.574 312.253 430.322 312.298L357.133 325.099C357.104 325.104 357.073 325.106 357.042 325.106V325.109ZM286.982 311.763L357.042 324.042L427.195 311.772L357.87 299.344L286.982 311.763Z" fill="#031930"/>
<path d="M357.057 433.074V324.475L284.219 311.718V420.098L357.057 433.074Z" fill="#031930"/>
<path d="M329.504 329.251V319.415L313.344 317.154V326.937L329.504 329.251Z" fill="white"/>
<path d="M329.505 329.782C329.481 329.782 329.455 329.782 329.431 329.777L313.272 327.464C313.013 327.425 312.818 327.202 312.818 326.94V317.157C312.818 317.003 312.886 316.859 313.001 316.758C313.116 316.657 313.27 316.612 313.421 316.633L329.579 318.894C329.841 318.93 330.036 319.153 330.036 319.418V329.254C330.036 329.407 329.968 329.554 329.853 329.652C329.757 329.737 329.632 329.782 329.507 329.782H329.505ZM313.875 326.479L328.977 328.641V319.874L313.875 317.76V326.476V326.479Z" fill="#031930"/>
<path d="M357.057 433.073V324.474L430.531 311.733V420.035L357.057 433.073Z" fill="white"/>
<path d="M357.056 433.602C356.934 433.602 356.811 433.559 356.715 433.48C356.595 433.379 356.525 433.23 356.525 433.074V324.475C356.525 324.218 356.71 323.997 356.965 323.953L430.44 311.213C430.593 311.186 430.752 311.229 430.869 311.33C430.989 311.431 431.059 311.578 431.059 311.734V420.035C431.059 420.292 430.874 420.511 430.622 420.556L357.147 433.595C357.116 433.6 357.085 433.602 357.054 433.602H357.056ZM357.584 324.919V432.442L430.002 419.593V312.364L357.584 324.919Z" fill="#031930"/>
<path d="M419.352 221.929L359.961 232.317L301.136 222.006C301.035 221.989 301.035 221.842 301.136 221.825L360.633 211.403L419.352 221.931V221.929Z" fill="white"/>
<path d="M359.961 232.847C359.93 232.847 359.901 232.844 359.87 232.839L301.045 222.528C300.747 222.475 300.531 222.218 300.531 221.915C300.531 221.612 300.747 221.355 301.045 221.302L360.542 210.88C360.604 210.868 360.667 210.871 360.727 210.88L419.446 221.408C419.698 221.454 419.883 221.672 419.88 221.929C419.88 222.186 419.695 222.405 419.443 222.451L360.05 232.839C360.021 232.844 359.99 232.847 359.958 232.847H359.961ZM303.687 221.915L359.961 231.78L416.319 221.922L360.633 211.94L303.684 221.917L303.687 221.915Z" fill="#031930"/>
<path d="M359.973 320.36V232.231L419.597 221.893V309.779L359.973 320.36Z" fill="white"/>
<path d="M359.972 320.889C359.85 320.889 359.727 320.846 359.631 320.767C359.511 320.666 359.441 320.517 359.441 320.361V232.231C359.441 231.974 359.626 231.753 359.881 231.71L419.507 221.372C419.661 221.345 419.819 221.389 419.937 221.49C420.057 221.59 420.127 221.737 420.127 221.893V309.78C420.127 310.037 419.942 310.256 419.69 310.301L360.063 320.882C360.032 320.887 360.001 320.889 359.97 320.889H359.972ZM360.5 232.676V319.727L419.068 309.333V222.518L360.5 232.673V232.676Z" fill="#031930"/>
<path d="M359.973 320.362V232.232L300.865 221.88V309.832L359.973 320.362Z" fill="#031930"/>
<path d="M338.473 238.283V228.444L325.432 226.184V235.969L338.473 238.283Z" fill="white"/>
<path d="M338.472 238.811C338.441 238.811 338.41 238.809 338.379 238.804L325.337 236.49C325.085 236.447 324.9 236.226 324.9 235.969V226.183C324.9 226.027 324.97 225.878 325.088 225.78C325.208 225.679 325.366 225.638 325.518 225.662L338.559 227.923C338.813 227.966 338.998 228.187 338.998 228.444V238.28C338.998 238.436 338.929 238.585 338.809 238.686C338.713 238.768 338.593 238.809 338.468 238.809L338.472 238.811ZM325.962 235.524L337.944 237.651V228.891L325.962 226.813V235.524Z" fill="#031930"/>
<path d="M382.683 215.483L324.68 225.958L337.702 228.236L395.736 217.737L382.683 215.483Z" fill="white"/>
<path d="M337.701 228.765C337.67 228.765 337.641 228.762 337.61 228.758L324.587 226.48C324.335 226.434 324.15 226.216 324.15 225.961C324.15 225.704 324.333 225.483 324.585 225.44L382.586 214.967C382.646 214.955 382.708 214.955 382.771 214.967L395.824 217.221C396.076 217.264 396.261 217.482 396.264 217.74C396.264 217.997 396.081 218.218 395.829 218.263L337.797 228.762C337.766 228.767 337.734 228.77 337.703 228.77L337.701 228.765ZM327.702 225.949L337.698 227.698L392.693 217.749L382.682 216.022L327.702 225.949Z" fill="#031930"/>
<path d="M351.733 301.651V254.021L308.445 246.391V293.843L351.733 301.651Z" fill="white"/>
<path d="M351.732 302.18C351.701 302.18 351.67 302.177 351.639 302.172L308.351 294.364C308.098 294.318 307.916 294.1 307.916 293.843V246.39C307.916 246.234 307.986 246.085 308.106 245.984C308.226 245.884 308.382 245.84 308.538 245.869L351.826 253.5C352.078 253.543 352.263 253.764 352.263 254.021V301.651C352.263 301.807 352.193 301.956 352.073 302.057C351.977 302.136 351.857 302.18 351.735 302.18H351.732ZM308.973 293.401L351.204 301.017V254.463L308.973 247.02V293.401Z" fill="#031930"/>
<path d="M313.707 281.829V289.154L346.468 294.776V287.61L313.707 281.829Z" fill="#031930"/>
<path d="M344.886 265.784L338.124 255.996L331.4 263.393L334.853 264.001V281.364L341.395 282.486V265.157L344.886 265.784Z" fill="#031930"/>
<path d="M328.775 263.051L322.011 253.263L315.287 260.66L318.74 261.27V278.631L325.284 279.753V262.424L328.775 263.051Z" fill="#031930"/>
<path d="M232.119 364.946L276.884 372.776L321.149 365.018C321.238 365.001 321.238 364.871 321.149 364.857L276.377 357.013L232.122 364.946H232.119Z" fill="white"/>
<path d="M276.873 439.133V372.711L231.936 364.917V431.159L276.873 439.133Z" fill="#031930"/>
<path d="M276.875 439.132V372.71L321.426 364.906V431.197L276.875 439.132Z" fill="white"/>
<path d="M276.874 439.662C276.752 439.662 276.629 439.618 276.533 439.539C276.413 439.438 276.344 439.289 276.344 439.133V372.71C276.344 372.453 276.529 372.232 276.781 372.189L321.33 364.386C321.483 364.359 321.642 364.402 321.762 364.501C321.882 364.602 321.949 364.751 321.949 364.907V431.197C321.949 431.454 321.764 431.673 321.512 431.719L276.963 439.654C276.932 439.659 276.901 439.662 276.872 439.662H276.874ZM277.403 373.155V438.501L320.895 430.753V365.536L277.403 373.152V373.155Z" fill="#031930"/>
<path d="M261.864 359.854L306.084 367.635L293.979 369.913L249.764 362.131L261.864 359.854Z" fill="white"/>
<path d="M293.978 370.443C293.946 370.443 293.915 370.441 293.886 370.436L249.671 362.654C249.419 362.609 249.234 362.393 249.234 362.136C249.234 361.881 249.414 361.66 249.667 361.612L261.769 359.334C261.832 359.322 261.896 359.322 261.959 359.334L306.176 367.116C306.428 367.159 306.613 367.378 306.613 367.635C306.613 367.89 306.433 368.111 306.181 368.159L294.076 370.436C294.045 370.443 294.011 370.446 293.978 370.446V370.443ZM252.716 362.114L293.975 369.377L303.129 367.654L261.868 360.391L252.716 362.114Z" fill="#031930"/>
<path d="M276.883 373.304C276.852 373.304 276.823 373.302 276.792 373.297L232.027 365.467C231.775 365.424 231.59 365.203 231.59 364.946C231.59 364.689 231.772 364.47 232.024 364.425L276.28 356.491C276.343 356.479 276.403 356.479 276.465 356.491L321.237 364.336C321.528 364.386 321.741 364.638 321.741 364.936C321.741 365.234 321.53 365.486 321.237 365.539L276.972 373.3C276.941 373.304 276.912 373.307 276.881 373.307L276.883 373.304ZM235.153 364.939L276.883 372.238L318.543 364.936L276.376 357.549L235.153 364.939Z" fill="#031930"/>
<path d="M276.874 439.662C276.752 439.662 276.629 439.618 276.533 439.539C276.413 439.438 276.344 439.289 276.344 439.133V372.71C276.344 372.453 276.529 372.232 276.781 372.189L321.33 364.386C321.483 364.359 321.642 364.402 321.762 364.501C321.882 364.602 321.949 364.751 321.949 364.907V431.197C321.949 431.454 321.764 431.673 321.512 431.719L276.963 439.654C276.932 439.659 276.901 439.662 276.872 439.662H276.874ZM277.403 373.155V438.501L320.895 430.753V365.536L277.403 373.152V373.155Z" fill="#031930"/>
<path d="M276.873 439.662C276.842 439.662 276.811 439.66 276.78 439.655L231.839 431.681C231.587 431.638 231.402 431.417 231.402 431.16V364.92C231.402 364.763 231.472 364.614 231.592 364.516C231.712 364.415 231.868 364.372 232.022 364.398L276.962 372.19C277.217 372.233 277.401 372.454 277.401 372.711V439.134C277.401 439.29 277.332 439.439 277.212 439.54C277.116 439.619 276.996 439.662 276.871 439.662H276.873ZM232.461 430.715L276.342 438.502V373.155L232.461 365.547V430.715Z" fill="#031930"/>
<path d="M290.961 107.4L330.858 114.379L370.312 107.465C370.391 107.45 370.391 107.335 370.312 107.32L330.407 100.329L290.961 107.4Z" fill="white"/>
<path d="M330.852 173.521V114.321L290.799 107.375V166.415L330.852 173.521Z" fill="#031930"/>
<path d="M330.852 173.521V114.321L370.559 107.365V166.448L330.852 173.521Z" fill="white"/>
<path d="M317.474 102.861L356.884 109.797L346.097 111.828L306.688 104.891L317.474 102.861Z" fill="#031930"/>
<path d="M330.861 114.907C330.83 114.907 330.801 114.905 330.77 114.9L290.873 107.921C290.62 107.875 290.436 107.656 290.436 107.399C290.436 107.142 290.618 106.924 290.87 106.878L330.316 99.8049C330.379 99.7929 330.439 99.7929 330.501 99.8049L370.406 106.796C370.694 106.847 370.903 107.097 370.903 107.39C370.903 107.683 370.694 107.933 370.403 107.983L330.953 114.898C330.921 114.902 330.892 114.905 330.861 114.905V114.907ZM293.997 107.394L330.861 113.843L367.659 107.392L330.41 100.867L293.997 107.394Z" fill="#031930"/>
<path d="M330.853 174.053C330.731 174.053 330.608 174.01 330.512 173.93C330.392 173.829 330.322 173.68 330.322 173.524V114.321C330.322 114.064 330.507 113.843 330.759 113.8L370.467 106.845C370.623 106.818 370.779 106.861 370.899 106.96C371.019 107.061 371.089 107.21 371.089 107.366V166.449C371.089 166.706 370.904 166.925 370.652 166.97L330.944 174.043C330.913 174.048 330.882 174.05 330.851 174.05L330.853 174.053ZM331.381 114.766V172.892L370.03 166.007V107.995L331.381 114.763V114.766Z" fill="#031930"/>
<path d="M330.854 174.052C330.823 174.052 330.792 174.05 330.761 174.045L290.705 166.936C290.452 166.89 290.268 166.671 290.268 166.414V107.375C290.268 107.219 290.337 107.07 290.455 106.971C290.575 106.87 290.733 106.829 290.885 106.853L330.941 113.799C331.195 113.842 331.38 114.063 331.38 114.32V173.523C331.38 173.68 331.31 173.829 331.19 173.93C331.094 174.009 330.974 174.052 330.849 174.052H330.854ZM291.329 165.972L330.326 172.892V114.765L291.329 108.002V165.97V165.972Z" fill="#031930"/>
<path d="M399.581 44.7638C386.614 15.5515 354.663 -3.13059 319.515 0.434763C284.358 4.00251 256.81 28.7485 249.979 59.9838L250.034 59.9526C257.204 51.5918 266.951 52.5191 276.722 57.1584L276.962 57.2209C286.012 46.7122 298.211 48.7808 306.572 54.1793L306.683 54.2057L307.708 54.6189C319.868 47.0654 330.371 44.3289 342.947 50.525C350.444 44.3722 361.334 40.9486 372.552 47.5003L372.617 47.5147L372.766 47.4402C378.976 41.3065 389.897 39.7041 399.392 44.7133L399.581 44.7638Z" fill="#031930"/>
<path d="M314.907 1.84668C290.08 9.39302 281.767 30.1749 277.062 56.6771C285.409 48.6887 295.324 46.7115 307.689 54.3323C306.07 33.2261 310.474 16.257 314.909 1.84908L314.907 1.84668Z" fill="white"/>
<path d="M277.062 57.2054C276.978 57.2054 276.891 57.1838 276.812 57.143C276.611 57.0348 276.502 56.809 276.541 56.5832C280.794 32.63 288.367 9.3591 314.753 1.33946C314.94 1.2818 315.144 1.33466 315.281 1.4716C315.42 1.61095 315.468 1.81276 315.413 2.00016C311.071 16.103 306.576 32.9375 308.214 54.2888C308.228 54.4882 308.132 54.678 307.962 54.7813C307.791 54.8846 307.578 54.8846 307.409 54.7813C296.111 47.8187 286.305 48.5635 277.427 57.0589C277.326 57.155 277.194 57.2054 277.062 57.2054ZM314.107 2.65124C289.587 10.5964 282.057 32.4474 277.862 55.2257C286.593 47.5713 296.176 46.9586 307.085 53.3518C305.683 32.7789 309.9 16.4249 314.107 2.65124Z" fill="#031930"/>
<path d="M325.553 0.78125C354.453 4.4427 365.155 23.3458 371.97 47.1716C364.284 42.8855 353.91 44.5673 342.943 50.5256C339.373 30.3708 334.164 13.5699 325.551 0.78125H325.553Z" fill="white"/>
<path d="M342.946 51.0541C342.867 51.0541 342.79 51.0373 342.718 51.0013C342.565 50.9268 342.456 50.785 342.428 50.6169C338.518 28.5496 333.017 12.8083 325.119 1.07675C325.004 0.903764 324.999 0.680329 325.107 0.502542C325.215 0.324755 325.419 0.233459 325.623 0.255082C356.153 4.12555 366.188 25.0203 372.482 47.0227C372.542 47.2293 372.47 47.4503 372.302 47.5825C372.134 47.7146 371.903 47.7338 371.716 47.6305C364.505 43.6087 354.645 44.7715 343.201 50.9868C343.122 51.0301 343.035 51.0517 342.949 51.0517L342.946 51.0541ZM326.639 1.46355C334.194 13.0822 339.517 28.4728 343.338 49.7159C354.28 43.921 363.84 42.6933 371.121 46.1409C364.983 25.2005 355.128 5.55506 326.637 1.46355H326.639Z" fill="#031930"/>
<path d="M329.495 108.476C329.399 108.476 329.303 108.45 329.217 108.397L250.498 59.8204C250.25 59.6667 250.171 59.3399 250.325 59.0925C250.478 58.845 250.803 58.7657 251.052 58.9195L329.428 107.285L398.112 43.2622C398.326 43.0628 398.662 43.0748 398.859 43.2886C399.058 43.5025 399.046 43.8364 398.832 44.0358L329.855 108.332C329.755 108.426 329.625 108.474 329.495 108.474V108.476Z" fill="#031930"/>
<path d="M329.497 108.476C329.36 108.476 329.225 108.424 329.124 108.323L276.8 56.2864C276.594 56.0798 276.591 55.7458 276.8 55.5392C277.007 55.3326 277.341 55.3302 277.547 55.5392L328.068 105.781L306.852 52.3342C306.744 52.0627 306.876 51.7552 307.148 51.6471C307.419 51.539 307.727 51.6711 307.835 51.9426L329.989 107.751C330.083 107.984 329.999 108.251 329.79 108.388C329.701 108.445 329.6 108.474 329.499 108.474L329.497 108.476Z" fill="#031930"/>
<path d="M329.497 108.477C329.425 108.477 329.35 108.462 329.281 108.431C329.05 108.328 328.923 108.073 328.981 107.828L342.43 50.4053C342.497 50.1194 342.783 49.9465 343.067 50.0113C343.35 50.0786 343.528 50.3621 343.46 50.648L330.637 105.392L372.9 44.9204C373.068 44.6801 373.397 44.6224 373.637 44.7906C373.878 44.9588 373.935 45.2879 373.767 45.5282L329.929 108.253C329.828 108.398 329.665 108.479 329.497 108.479V108.477Z" fill="#031930"/>
<path d="M48.3223 403.571L49.5493 415.361L57.464 416.295V402.317L48.3223 403.571Z" fill="white"/>
<path d="M57.4638 416.824C57.4422 416.824 57.423 416.824 57.4013 416.819L49.4867 415.885C49.2418 415.856 49.0473 415.661 49.0232 415.414L47.7938 403.625C47.765 403.341 47.9643 403.084 48.2476 403.046L57.3917 401.791C57.543 401.77 57.6967 401.815 57.812 401.916C57.9272 402.017 57.9921 402.161 57.9921 402.315V416.293C57.9921 416.444 57.9272 416.589 57.8144 416.689C57.7183 416.776 57.591 416.824 57.4638 416.824ZM50.0318 414.885L56.9355 415.7V402.923L48.9008 404.026L50.0318 414.883V414.885Z" fill="#031930"/>
<path d="M58.7078 436.821C55.4084 437.289 49.9983 437.7 43.6469 436.814C41.5698 436.523 40.1914 434.49 40.6933 432.441C42.0909 426.718 44.4994 415.861 48.6344 410.828L49.6621 413.557L51.0813 410.989C51.2758 410.638 51.624 410.4 52.0202 410.35L55.1275 409.953C55.7758 409.872 56.3809 410.304 56.5154 410.948L57.0101 413.314L58.9047 410.21L59.7452 421.803C59.9253 424.287 60.2975 426.752 60.8594 429.176L61.707 432.833C61.9591 434.767 60.6264 436.549 58.7078 436.823V436.821Z" fill="white"/>
<path d="M51.2269 437.863C48.9096 437.863 46.3282 437.719 43.5739 437.335C42.4381 437.176 41.4152 436.539 40.7692 435.585C40.1209 434.629 39.9048 433.435 40.1785 432.311L40.4787 431.071C41.905 425.161 44.2967 415.27 48.2252 410.486C48.3453 410.34 48.5326 410.265 48.7199 410.301C48.9072 410.333 49.0609 410.46 49.1281 410.638L49.7525 412.293L50.6169 410.727C50.8931 410.229 51.3925 409.888 51.952 409.816L55.0593 409.42C55.9742 409.307 56.8411 409.924 57.0308 410.83L57.2517 411.889L58.4499 409.926C58.57 409.729 58.8029 409.633 59.0262 409.689C59.2496 409.744 59.4129 409.936 59.4297 410.164L60.2701 421.757C60.4478 424.205 60.82 426.658 61.3723 429.051L62.22 432.707C62.5201 434.973 60.9713 437.029 58.7813 437.339C56.8387 437.616 54.2549 437.861 51.2245 437.861L51.2269 437.863ZM48.4774 411.904C45.0315 416.74 42.844 425.798 41.5088 431.321L41.2087 432.563C41.0046 433.397 41.1654 434.283 41.6457 434.992C42.1236 435.698 42.88 436.169 43.7204 436.287C49.9566 437.157 55.273 436.772 58.6348 436.294C60.2557 436.066 61.3987 434.54 61.1826 432.897L60.3446 429.291C59.7779 426.847 59.3984 424.339 59.2184 421.836L58.4956 411.889L57.4606 413.586C57.3477 413.771 57.1316 413.869 56.9203 413.831C56.7066 413.795 56.5361 413.629 56.4929 413.417L55.9982 411.051C55.919 410.674 55.5708 410.421 55.1962 410.474L52.0889 410.871C51.8608 410.9 51.6567 411.039 51.5438 411.243L50.1247 413.811C50.0238 413.992 49.8317 414.097 49.6228 414.083C49.4163 414.068 49.2386 413.934 49.1666 413.742L48.475 411.906L48.4774 411.904Z" fill="#031930"/>
<path d="M51.4729 434.362C49.5087 434.362 47.1722 434.157 44.5452 433.554C44.2594 433.49 44.0817 433.206 44.149 432.92C44.2138 432.634 44.4972 432.454 44.7829 432.524C52.4791 434.29 57.6971 432.468 57.7499 432.449C58.0236 432.348 58.3262 432.493 58.4271 432.766C58.5255 433.04 58.3838 433.343 58.1101 433.444C57.9612 433.499 55.5071 434.362 51.4753 434.362H51.4729Z" fill="#031930"/>
<path d="M47.6497 425.304C47.3663 425.304 47.131 425.078 47.1214 424.792C47.1118 424.499 47.3399 424.256 47.6329 424.247L55.0504 423.999C55.3458 423.965 55.5859 424.218 55.5955 424.511C55.6051 424.804 55.377 425.047 55.0841 425.056L47.6665 425.304C47.6665 425.304 47.6545 425.304 47.6473 425.304H47.6497Z" fill="#031930"/>
<path d="M85.3926 397.296L86.5788 414.498H96.1023L96.5466 397.296H85.3926Z" fill="white"/>
<path d="M96.1025 415.027H86.579C86.3004 415.027 86.0699 414.811 86.0507 414.534L84.8644 397.332C84.8548 397.186 84.9053 397.041 85.0061 396.936C85.107 396.828 85.2462 396.768 85.3927 396.768H96.5443C96.686 396.768 96.8229 396.825 96.9237 396.926C97.0246 397.029 97.0774 397.166 97.075 397.308L96.6332 414.51C96.626 414.796 96.3906 415.027 96.1049 415.027H96.1025ZM87.0736 413.97H95.5886L96.004 397.825H85.9618L87.076 413.97H87.0736Z" fill="#031930"/>
<path d="M84.0941 424.209C84.0701 425.836 85.1747 427.265 86.7476 427.635C92.2225 428.918 104.556 431.775 108.073 432.303C112.638 432.988 118.25 431.58 120.663 428.889C123.077 426.201 115.26 419.777 111.553 417.441C106.044 413.97 100.749 407.111 98.5307 406.801C96.3119 406.493 92.1673 412.978 92.1673 412.978L85.3956 410.114C85.3956 410.114 84.2142 415.959 84.0941 424.212V424.209Z" fill="white"/>
<path d="M110.459 433.005C109.626 433.005 108.8 432.948 107.996 432.828C104.435 432.294 91.8662 429.38 86.6266 428.152C84.8256 427.729 83.5361 426.069 83.5649 424.205C83.6874 415.998 84.8664 410.068 84.8784 410.011C84.9096 409.855 85.0105 409.722 85.1498 409.648C85.2891 409.573 85.4547 409.566 85.6036 409.629L91.967 412.322C93.0644 410.662 96.3806 405.974 98.6042 406.282C99.8865 406.46 101.692 408.187 104.192 410.575C106.509 412.788 109.134 415.296 111.835 417C114.823 418.881 121.143 423.866 121.618 427.261C121.726 428.044 121.539 428.712 121.059 429.248C119.008 431.535 114.669 433.01 110.462 433.01L110.459 433.005ZM84.6215 424.219C84.6023 425.591 85.546 426.812 86.8667 427.122C92.0919 428.347 104.627 431.254 108.152 431.782C112.702 432.465 118.026 431.04 120.269 428.539C120.535 428.243 120.631 427.871 120.566 427.405C120.201 424.789 114.931 420.2 111.269 417.893C108.476 416.132 105.81 413.586 103.457 411.339C101.37 409.345 99.399 407.462 98.4553 407.33C97.1562 407.157 94.2555 410.693 92.6106 413.266C92.4713 413.485 92.1952 413.569 91.9598 413.468L85.7957 410.861C85.4956 412.589 84.7175 417.665 84.6215 424.222V424.219Z" fill="#031930"/>
<path d="M110.387 428.789C102.088 428.789 91.3662 424.993 87.4569 423.491C87.1831 423.385 87.0487 423.08 87.1519 422.806C87.2576 422.535 87.5625 422.398 87.8363 422.501C91.5343 423.921 110.341 430.768 117.391 426.146C117.636 425.985 117.963 426.055 118.124 426.297C118.285 426.542 118.215 426.869 117.972 427.03C116.044 428.296 113.372 428.786 110.389 428.786L110.387 428.789Z" fill="#031930"/>
<path d="M99.8096 419.429C99.6727 419.429 99.5358 419.376 99.4326 419.27C99.2284 419.061 99.2308 418.727 99.4398 418.523L103.385 414.657C103.594 414.453 103.928 414.458 104.132 414.665C104.336 414.874 104.331 415.208 104.125 415.412L100.179 419.277C100.076 419.378 99.944 419.429 99.8096 419.429Z" fill="#031930"/>
<path d="M45.6177 285.15C45.6177 285.15 42.6666 338.928 41.1225 357.493C39.5785 376.057 44.7341 405.899 44.7341 405.899L59.4348 405.12C59.4348 405.12 60.4433 368.837 61.5335 358.761C61.5335 358.761 67.7432 345.103 69.5826 332.92C71.422 320.736 77.6918 301.495 77.6918 301.495C77.6918 301.495 82.7825 397.536 83.2724 405.082C83.2724 405.082 94.7986 405.599 98.9312 402.98C98.9312 402.98 106.255 367.961 105.203 348.906C104.152 329.852 105.307 282.515 105.307 282.515L45.6153 285.15H45.6177Z" fill="white"/>
<path d="M44.7351 406.428C44.4805 406.428 44.2572 406.243 44.214 405.988C44.1612 405.69 39.0656 375.868 40.5977 357.447C42.1225 339.102 45.0617 285.657 45.0929 285.119C45.1073 284.848 45.3258 284.632 45.5972 284.62L105.288 281.984C105.44 281.972 105.577 282.032 105.682 282.135C105.788 282.239 105.846 282.38 105.841 282.527C105.829 283 104.698 330.063 105.737 348.878C106.78 367.781 99.5301 402.737 99.4557 403.088C99.4269 403.227 99.3428 403.35 99.2204 403.427C94.9941 406.103 83.732 405.63 83.2542 405.611C82.9852 405.599 82.7667 405.385 82.7499 405.116C82.3129 398.398 78.1803 320.573 77.323 304.436C75.534 310.209 71.5095 323.735 70.1095 332.999C68.3518 344.635 62.5623 357.762 62.0532 358.901C60.9798 368.955 59.9761 404.772 59.9665 405.135C59.9593 405.411 59.7408 405.635 59.4646 405.649L44.7639 406.428C44.7639 406.428 44.7447 406.428 44.7351 406.428ZM46.1206 285.657C45.8229 291.049 43.0998 340.108 41.6494 357.536C40.2327 374.565 44.5382 401.49 45.1769 405.344L58.9195 404.616C59.0444 400.253 59.9953 368.047 61.0086 358.704C61.0158 358.649 61.0302 358.593 61.0519 358.54C61.1143 358.404 67.252 344.805 69.0602 332.838C70.8851 320.754 77.1261 301.521 77.1885 301.329C77.2678 301.086 77.5127 300.933 77.76 300.969C78.0122 301.002 78.2043 301.211 78.2187 301.466C78.2691 302.41 83.1365 394.24 83.7705 404.568C85.9268 404.626 94.8476 404.734 98.4616 402.646C99.0835 399.609 105.668 366.908 104.676 348.935C103.696 331.205 104.64 288.492 104.765 283.067L46.1182 285.657H46.1206Z" fill="#031930"/>
<path d="M58.8297 359.288H54.3369C54.0439 359.288 53.8086 359.05 53.8086 358.759C53.8086 358.468 54.0463 358.23 54.3369 358.23H58.8297C59.1226 358.23 59.358 358.468 59.358 358.759C59.358 359.05 59.1202 359.288 58.8297 359.288Z" fill="#031930"/>
<path d="M90.835 387.219H90.8254C90.5324 387.214 90.3019 386.971 90.3067 386.68C90.47 377.784 100.154 361.85 100.567 361.175C100.719 360.928 101.045 360.846 101.295 361C101.545 361.151 101.624 361.478 101.47 361.728C101.372 361.891 91.5218 378.089 91.3657 386.7C91.3609 386.988 91.1256 387.219 90.8374 387.219H90.835Z" fill="#031930"/>
<path d="M114.372 200.074C115.186 200.009 121.963 211.647 125.147 217.202C126.052 218.783 128.072 219.294 129.616 218.341L154.524 202.955C156.558 201.698 158.304 200.016 159.617 198.013C161.697 194.841 162.936 191.617 165.719 189.364C167.983 187.531 170.277 185.496 170.963 184.962C171.393 184.628 173.391 186.051 171.885 188.578C171.422 189.354 169.695 190.928 169.222 191.641C168.468 192.78 168.468 194.298 169.306 195.375C170.2 196.523 170.947 198.366 169.943 200.927C168.459 204.718 165.095 205.655 163.19 205.876C162.235 205.987 161.353 206.45 160.719 207.178L137.734 233.532C134.168 237.621 128.206 238.543 123.586 235.72C116.113 231.153 106.491 221.949 99.5586 210.314L114.37 200.065L114.372 200.074Z" fill="white"/>
<path d="M129.366 237.89C127.291 237.89 125.197 237.33 123.312 236.179C116.5 232.015 106.563 223.107 99.1073 210.592C98.9656 210.354 99.0328 210.044 99.2609 209.886L114.072 199.637C114.149 199.584 114.238 199.553 114.331 199.545C114.831 199.512 115.583 199.456 125.608 216.937C125.975 217.576 126.568 218.028 127.277 218.208C127.985 218.388 128.718 218.275 129.339 217.891L154.248 202.505C156.22 201.287 157.924 199.634 159.178 197.724C159.778 196.809 160.316 195.877 160.832 194.976C162.124 192.729 163.344 190.61 165.39 188.955C166.699 187.898 167.991 186.793 169.028 185.904C169.763 185.274 170.344 184.779 170.644 184.546C171.019 184.256 171.597 184.366 172.116 184.825C172.911 185.527 173.446 187.002 172.344 188.852C172.066 189.318 171.437 189.983 170.827 190.625C170.351 191.124 169.861 191.643 169.667 191.937C169.016 192.919 169.042 194.171 169.727 195.053C170.663 196.259 171.547 198.289 170.438 201.124C168.85 205.179 165.253 206.174 163.253 206.405C162.427 206.501 161.67 206.899 161.118 207.529L138.133 233.882C135.845 236.506 132.627 237.885 129.364 237.885L129.366 237.89ZM100.269 210.477C107.596 222.602 117.235 231.227 123.862 235.278C128.266 237.971 133.933 237.094 137.336 233.193L160.323 206.839C161.049 206.01 162.045 205.484 163.133 205.359C164.898 205.155 168.068 204.283 169.455 200.742C170.2 198.839 170.013 197.143 168.894 195.706C167.928 194.464 167.885 192.717 168.786 191.355C169.03 190.985 169.53 190.457 170.061 189.899C170.603 189.325 171.218 188.676 171.437 188.311C172.08 187.232 171.958 186.49 171.744 186.058C171.576 185.716 171.321 185.527 171.187 185.466C170.882 185.712 170.358 186.158 169.715 186.709C168.725 187.554 167.374 188.71 166.055 189.777C164.163 191.307 162.991 193.344 161.75 195.502C161.224 196.417 160.681 197.361 160.062 198.303C158.724 200.343 156.906 202.106 154.803 203.404L129.894 218.79C129.025 219.325 128.002 219.484 127.015 219.234C126.023 218.982 125.197 218.355 124.688 217.463C118.37 206.448 115.273 201.655 114.375 200.711L100.269 210.472V210.477Z" fill="#031930"/>
<path d="M28.8815 221.715C28.8815 221.715 27.2246 191.078 50.373 182.472C68.2986 175.808 91.1877 178.684 98.3628 181.173C116.027 187.302 124.719 210.652 124.719 210.652L104.02 213.571C104.02 213.571 110.259 280.656 107.553 295.619C107.553 295.619 90.8948 297.575 83.8278 294.774C76.7632 291.972 53.5307 288.044 42.4247 293.183L44.4418 221.427L28.8791 221.715H28.8815Z" fill="#031930"/>
<path d="M57.7322 278.925C57.4801 278.925 57.2568 278.745 57.2112 278.488C57.1607 278.199 57.3528 277.926 57.6386 277.875C84.0768 273.169 91.7969 254.739 91.8714 254.554C91.9818 254.282 92.2892 254.153 92.5606 254.261C92.8319 254.369 92.9616 254.679 92.8535 254.948C92.7767 255.14 84.8668 274.103 57.8235 278.915C57.7923 278.92 57.7611 278.923 57.7298 278.923L57.7322 278.925Z" fill="white"/>
<path d="M107.12 246.394H73.207L83.8303 208.244H117.744L107.12 246.394Z" fill="white"/>
<path d="M107.119 246.923H73.2057C73.0401 246.923 72.884 246.846 72.7855 246.714C72.6847 246.582 72.6535 246.411 72.6967 246.253L83.32 208.101C83.3824 207.872 83.5913 207.714 83.8291 207.714H117.742C117.908 207.714 118.064 207.791 118.163 207.923C118.264 208.055 118.295 208.226 118.252 208.384L107.628 246.536C107.566 246.765 107.357 246.923 107.119 246.923ZM73.9021 245.866H106.718L117.046 208.773H84.2301L73.9021 245.866Z" fill="#031930"/>
<path d="M32.8984 221.744L47.8129 221.066C47.8129 221.066 47.9257 233.716 49.2704 233.942C54.0634 234.746 64.1032 234.787 70.6395 233.992C72.9159 233.716 74.7169 231.962 75.1443 229.694C75.4685 227.981 76.3882 225.97 78.7247 224.521C80.9819 223.123 78.7559 227.524 80.8666 230.359C82 231.883 85.5924 231.207 90.4886 230.064C95.3848 228.923 96.6287 234.191 91.1417 237.377C85.1913 240.83 81.4117 240.443 79.5147 240.846C75.7351 241.651 42.3187 246.927 37.1607 244.102C33.1746 241.92 32.8984 221.742 32.8984 221.742V221.744Z" fill="white"/>
<path d="M43.6409 245.464C40.5024 245.464 38.0723 245.209 36.9053 244.57C32.7678 242.307 32.398 223.851 32.3692 221.753C32.3644 221.468 32.5877 221.23 32.8735 221.218L47.7879 220.54C47.9296 220.526 48.0713 220.586 48.1745 220.684C48.2778 220.783 48.3378 220.92 48.3402 221.064C48.3882 226.436 48.8229 232.613 49.4448 233.435C54.3098 234.232 64.1431 234.249 70.5738 233.468C72.6052 233.221 74.2333 231.666 74.6223 229.598C75.0642 227.26 76.3849 225.35 78.4428 224.074C78.8126 223.846 79.3577 223.57 79.8307 223.836C80.3902 224.151 80.383 224.889 80.3758 225.907C80.3662 227.123 80.3518 228.788 81.2883 230.045C82.2416 231.325 85.9636 230.578 90.3676 229.552C93.0474 228.925 94.541 230.061 95.0453 231.332C95.7273 233.053 94.8772 235.82 91.4049 237.838C86.6288 240.611 83.267 240.954 81.0434 241.18C80.4839 241.238 79.9988 241.286 79.6218 241.368C77.732 241.771 55.5705 245.464 43.6409 245.464ZM33.4354 222.251C33.5555 228.123 34.4559 242.024 37.4119 243.64C42.3538 246.343 75.5516 241.151 79.4009 240.33C79.8331 240.239 80.3446 240.186 80.9353 240.126C83.0701 239.907 86.295 239.578 90.8743 236.921C93.8062 235.22 94.5818 233.033 94.0632 231.722C93.6285 230.621 92.303 230.186 90.6077 230.58C85.5002 231.772 81.7806 232.476 80.4407 230.676C79.2928 229.134 79.3096 227.186 79.3192 225.898C79.3216 225.533 79.3265 225.059 79.2832 224.819C79.2208 224.846 79.1271 224.891 78.9999 224.97C77.1749 226.102 76.0511 227.724 75.6621 229.79C75.1866 232.313 73.1936 234.213 70.701 234.516C64.1527 235.311 54.0961 235.287 49.1831 234.46C48.7484 234.388 47.4373 234.167 47.2908 221.619L33.4378 222.248L33.4354 222.251Z" fill="#031930"/>
<path d="M84.2568 181.72C84.2568 181.72 80.3955 179.341 80.4339 177.953L79.3318 170.817C79.3198 170.164 79.7232 169.577 80.3307 169.364L84.8979 167.795C85.4791 167.588 85.8561 167.014 85.8152 166.389L85.4598 160.719L87.2488 159.134C87.3881 159.009 87.4073 158.795 87.2872 158.651L84.4609 155.203C83.5364 153.901 82.6095 150.785 81.8507 150.996C81.8507 150.996 65.7405 149.134 64.9552 157.262C64.8424 158.439 65.1954 159.614 65.8773 160.575L67.3037 162.589C68.7373 164.609 69.4913 167.086 69.2367 169.563C69.1839 170.077 68.5139 173.39 68.0673 175.581C67.8128 176.826 67.1236 177.931 66.1223 178.702C64.864 179.673 63.332 180.908 63.5817 180.987C63.5817 180.987 65.3659 182.299 68.1826 183.459C73.1845 185.523 78.8731 185.009 83.4932 182.186L84.2592 181.717L84.2568 181.72Z" fill="white"/>
<path d="M74.5365 185.24C72.3033 185.24 70.0749 184.815 67.981 183.95C65.1379 182.777 63.3441 181.47 63.2697 181.415C63.152 181.328 63.0584 181.192 63.0344 181.052C62.9719 180.692 62.9359 180.492 65.8006 178.284C66.7011 177.59 67.3231 176.593 67.5512 175.476C68.5117 170.784 68.6918 169.724 68.7134 169.51C68.9463 167.245 68.2932 164.895 66.8764 162.896L65.4501 160.883C64.672 159.785 64.3094 158.483 64.4343 157.212C64.5952 155.547 65.3588 154.153 66.7035 153.065C71.1891 149.437 80.7631 150.348 81.8317 150.463C82.6601 150.343 83.2148 151.523 83.9016 153C84.2306 153.711 84.5739 154.444 84.8957 154.898L87.7004 158.315C88.0006 158.682 87.9598 159.216 87.6044 159.53L86.0075 160.945L86.3485 166.358C86.4013 167.216 85.8802 168.011 85.0782 168.295L80.5086 169.864C80.1291 169.998 79.8722 170.363 79.8674 170.777L80.9624 177.871C80.9672 177.902 80.9696 177.934 80.9696 177.967C80.9528 178.616 82.8018 180.197 84.5427 181.268C84.6988 181.365 84.7949 181.535 84.7949 181.72C84.7949 181.905 84.6988 182.076 84.5403 182.172L83.7743 182.638C80.9528 184.36 77.7447 185.237 74.5437 185.237L74.5365 185.24ZM64.3239 180.853C65.0034 181.297 66.449 182.174 68.382 182.969C73.1702 184.944 78.7148 184.483 83.2172 181.735L83.2628 181.706C81.9853 180.846 79.9298 179.267 79.9058 177.991L78.8108 170.897C78.806 170.873 78.806 170.849 78.8036 170.825C78.7892 169.943 79.3319 169.152 80.1556 168.862L84.7252 167.291C85.0782 167.166 85.3111 166.808 85.2871 166.418L84.9317 160.748C84.9221 160.585 84.987 160.426 85.1094 160.318L86.7711 158.848L84.0529 155.535C83.6518 154.973 83.2892 154.194 82.9411 153.44C82.6433 152.798 82.151 151.741 81.8821 151.52C81.8533 151.52 81.8221 151.52 81.7932 151.518C81.6924 151.506 71.6766 150.398 67.3663 153.884C66.2353 154.8 65.6181 155.919 65.4837 157.31C65.3852 158.327 65.6806 159.377 66.3097 160.266L67.7361 162.279C69.3017 164.487 70.0221 167.091 69.7628 169.614C69.7196 170.027 69.3233 172.069 68.5837 175.683C68.3052 177.047 67.544 178.268 66.4442 179.116C65.2291 180.053 64.624 180.569 64.3239 180.848V180.853Z" fill="#031930"/>
<path d="M82.3866 138.629C78.715 138.439 83.3567 142.226 69.7582 138.314C64.3433 136.758 67.124 143.115 65.7192 142.713C60.5277 141.236 60.7054 141.279 58.1816 141.969C56.5103 142.425 55.4441 145.553 55.7779 147.881C56.2173 150.956 59.6632 155.836 62.7512 160.997C64.3505 163.668 67.1792 163.911 70.6035 159.935C70.9685 159.512 69.1051 157.018 70.0776 155.944C72.6037 153.15 73.7251 157.371 75.7662 156.067C77.7233 154.815 78.5325 154.008 80.6024 152.114C83.107 149.825 87.3092 153.388 88.7596 148.237C89.516 145.551 87.4149 138.884 82.389 138.627L82.3866 138.629Z" fill="#031930"/>
<path d="M77.023 164.761C74.5064 164.761 72.1508 163.439 71.0077 161.239L69.7471 158.812C69.6126 158.553 69.7134 158.233 69.9728 158.099C70.2321 157.964 70.5515 158.065 70.686 158.324L71.9466 160.751C73.1449 163.057 75.9472 164.211 78.6126 163.495L80.8963 162.81C81.1772 162.726 81.4702 162.884 81.5542 163.166C81.6382 163.447 81.4798 163.74 81.1988 163.824L78.9008 164.511C78.2764 164.679 77.6425 164.761 77.023 164.761Z" fill="#031930"/>
<path d="M68.982 152.838C68.7275 152.838 68.5018 152.653 68.4609 152.393C68.4225 152.148 67.5388 146.375 70.771 142.654C72.5455 140.611 75.2062 139.598 78.6544 139.67C78.9474 139.674 79.1779 139.917 79.1731 140.208C79.1683 140.496 78.933 140.727 78.6448 140.727H78.6352C75.4967 140.662 73.1315 141.548 71.573 143.343C68.6675 146.687 69.4983 152.17 69.5055 152.225C69.5511 152.514 69.3542 152.785 69.0661 152.831C69.0373 152.835 69.0108 152.838 68.982 152.838Z" fill="white"/>
<path d="M76.4388 156.13C76.7654 153.732 75.1085 151.562 72.7384 151.286C72.4791 151.255 71.5138 151.233 71.2616 151.248C69.2037 151.375 68.1448 152.987 67.8518 155.123C67.5372 157.425 68.4834 159.575 70.7045 159.986C70.7958 160.003 71.4538 160.051 71.5498 160.051C74.148 160.058 76.1123 158.527 76.4412 156.13H76.4388Z" fill="white"/>
<path d="M71.5692 160.579H71.5476C71.4347 160.579 70.7431 160.529 70.6087 160.505C68.2602 160.072 66.9419 157.881 67.3285 155.051C67.6863 152.43 69.1078 150.852 71.2282 150.719C71.5211 150.703 72.5201 150.727 72.7986 150.76C74.0785 150.909 75.2143 151.553 76.0019 152.567C76.8016 153.6 77.1426 154.89 76.9625 156.202C76.6047 158.823 74.4363 160.579 71.5668 160.579H71.5692ZM71.5259 151.772C71.4251 151.772 71.3459 151.772 71.2954 151.776C69.2519 151.904 68.5796 153.706 68.3779 155.195C68.1233 157.052 68.7741 159.092 70.8032 159.465C70.892 159.477 71.4635 159.52 71.5572 159.522H71.5764C73.9272 159.522 75.6322 158.165 75.9203 156.058C76.0596 155.029 75.7954 154.02 75.1711 153.213C74.5612 152.425 73.6751 151.925 72.681 151.81C72.5081 151.791 71.8957 151.772 71.5283 151.772H71.5259Z" fill="#031930"/>
<path d="M73.8626 156.048C74.1387 153.646 72.4362 151.508 70.059 151.272C67.6817 151.037 65.5301 152.795 65.254 155.198C64.9778 157.6 66.6803 159.739 69.0576 159.974C71.4349 160.21 73.5865 158.451 73.8626 156.048Z" fill="white"/>
<path d="M69.483 160.525C69.3246 160.525 69.1661 160.517 69.0052 160.5C67.7229 160.373 66.5727 159.753 65.7658 158.751C64.947 157.735 64.5772 156.452 64.7285 155.138C65.0382 152.452 67.4515 150.477 70.1098 150.746C71.3921 150.874 72.5423 151.493 73.3491 152.495C74.1704 153.512 74.5377 154.797 74.3865 156.109C74.0959 158.631 71.9468 160.525 69.4806 160.525H69.483ZM69.6343 151.779C67.6989 151.779 66.0084 153.271 65.7802 155.258C65.6626 156.289 65.9483 157.293 66.5895 158.086C67.2186 158.864 68.1119 159.347 69.1108 159.446C71.1976 159.655 73.0946 158.1 73.3371 155.986C73.4548 154.955 73.1666 153.951 72.5279 153.156C71.8987 152.378 71.0055 151.895 70.0065 151.796C69.8816 151.784 69.7568 151.777 69.6343 151.777V151.779Z" fill="#031930"/>
<path d="M80.3064 165.953C81.7042 165.953 82.8373 164.813 82.8373 163.406C82.8373 162 81.7042 160.859 80.3064 160.859C78.9085 160.859 77.7754 162 77.7754 163.406C77.7754 164.813 78.9085 165.953 80.3064 165.953Z" fill="#031930"/>
</svg>
