<svg width="104" height="14" viewBox="0 0 104 14" fill="none" xmlns="http://www.w3.org/2000/svg"><path d="M20.7948 2.00973C20.8885 2.00973 20.9784 1.9725 21.0447 1.90624L22.5893 0.361613C22.7006 0.250309 22.6218 0.0599976 22.4644 0.0599976H6.38519C6.23915 0.0599976 6.16399 0.234734 6.26443 0.340757L7.82991 1.90624C7.89618 1.9725 7.98605 2.00973 8.07977 2.00973H12.5404C12.7928 2.00973 13.026 2.14435 13.1523 2.3629L17.4892 9.869C17.5674 10.0045 17.7702 9.97885 17.8123 9.82814L18.4017 7.71796C18.4269 7.62771 18.4152 7.53115 18.3692 7.4495L15.6021 2.53651C15.4694 2.30095 15.6397 2.00973 15.91 2.00973H20.7948Z" fill="#1C1D24"/><path d="M9.29703 11.4244C9.34387 11.5056 9.35656 11.602 9.33231 11.6925L8.76526 13.8088C8.72476 13.96 8.52226 13.9877 8.44255 13.8531L0.436043 0.327049C0.366323 0.209267 0.451226 0.0603591 0.588096 0.0603682L2.5338 0.0604981C2.66005 0.0605065 2.7767 0.127871 2.83981 0.237215L9.29703 11.4244Z" fill="#1C1D24"/><path d="M9.26062 5.04778C9.12375 5.04778 9.03886 5.19669 9.10857 5.31447L14.1629 13.8531C14.2426 13.9877 14.4451 13.96 14.4856 13.8088L15.0526 11.6925C15.0769 11.602 15.0642 11.5056 15.0173 11.4244L11.4388 5.2245C11.3757 5.11515 11.259 5.04778 11.1327 5.04778H9.26062Z" fill="#046ED7"/><path d="M102.753 13.733V0.0599976H103.411V13.733H102.753Z" fill="#1C1D24"/><path d="M99.9832 13.733V0.0599976H100.641V13.733H99.9832Z" fill="#1C1D24"/><path d="M94.5785 13.9398C93.7886 13.9398 93.0865 13.7392 92.4721 13.338C91.8577 12.9368 91.375 12.3851 91.0239 11.6829C90.6729 10.9682 90.4973 10.1533 90.4973 9.23796C90.4973 8.32267 90.6729 7.51395 91.0239 6.81181C91.375 6.09712 91.8577 5.53917 92.4721 5.13795C93.0865 4.73672 93.7886 4.53611 94.5785 4.53611C95.3685 4.53611 96.0455 4.74299 96.6097 5.15675C97.174 5.55798 97.6003 6.06578 97.8886 6.68015C98.1896 7.29453 98.34 7.92144 98.34 8.5609V8.89943H91.1556C91.118 9.72696 91.2308 10.473 91.4941 11.1375C91.7574 11.802 92.1524 12.3286 92.679 12.7173C93.2181 13.106 93.8513 13.3004 94.5785 13.3004C96.0957 13.3004 97.1614 12.523 97.7758 10.9682L98.3964 11.2315C97.6567 13.0371 96.3841 13.9398 94.5785 13.9398ZM91.2308 8.24117H97.6818C97.6316 7.70202 97.4686 7.20676 97.1928 6.75538C96.9169 6.29147 96.5533 5.91532 96.1019 5.62694C95.6631 5.33856 95.1553 5.19437 94.5785 5.19437C93.7259 5.19437 92.9987 5.47021 92.3969 6.02189C91.795 6.57358 91.4063 7.31334 91.2308 8.24117Z" fill="#1C1D24"/><path d="M81.5613 13.7331L78.6462 4.74315H79.3232L81.7682 12.473L84.1568 4.74315H84.6458L87.0531 12.473L89.4981 4.74315H90.1751L87.26 13.7331H86.8086L84.4201 6.00325L82.0127 13.7331H81.5613Z" fill="#1C1D24"/><path d="M72.397 13.7331V4.70553H73.9392L74.0333 6.11609C74.284 5.62709 74.6602 5.23214 75.1617 4.93122C75.6758 4.6303 76.2275 4.47984 76.8168 4.47984C77.0174 4.47984 77.2054 4.49238 77.381 4.51746C77.5565 4.54253 77.707 4.56761 77.8324 4.59268V6.22893C77.6944 6.19132 77.5189 6.15997 77.3057 6.13489C77.0926 6.10982 76.8606 6.09728 76.6099 6.09728C75.9077 6.09728 75.3122 6.32924 74.8232 6.79315C74.3342 7.24453 74.0897 7.8401 74.0897 8.57986V13.7331H72.397Z" fill="#1C1D24"/><path d="M67.348 13.94C66.4954 13.94 65.7431 13.7582 65.0911 13.3946C64.4391 13.0309 63.9313 12.4981 63.5677 11.7959C63.2041 11.0812 63.0223 10.2224 63.0223 9.21931C63.0223 8.25386 63.2041 7.42007 63.5677 6.71792C63.9313 6.00324 64.4265 5.45156 65.0535 5.06287C65.6929 4.67418 66.4264 4.47984 67.2539 4.47984C68.0815 4.47984 68.7836 4.68672 69.3604 5.10048C69.9497 5.50171 70.3948 6.04085 70.6957 6.71792C71.0091 7.39499 71.1659 8.13475 71.1659 8.9372V9.38857H64.6773C64.7024 10.3916 64.9531 11.1565 65.4296 11.6831C65.9186 12.1971 66.5643 12.4542 67.3668 12.4542C68.0062 12.4542 68.5328 12.2975 68.9466 11.984C69.3729 11.6705 69.7302 11.2004 70.0186 10.5734L71.2975 11.4198C70.8712 12.2975 70.3258 12.9369 69.6613 13.3381C69.0093 13.7394 68.2382 13.94 67.348 13.94ZM64.7713 8.03444H69.5108C69.4105 7.38245 69.1597 6.85584 68.7585 6.45462C68.3573 6.05339 67.8495 5.85278 67.2351 5.85278C66.5831 5.85278 66.044 6.04086 65.6177 6.417C65.1914 6.78061 64.9093 7.31976 64.7713 8.03444Z" fill="#1C1D24"/><path d="M57.5797 13.94C56.7522 13.94 56.0124 13.7519 55.3604 13.3757C54.721 12.9871 54.2132 12.4416 53.837 11.7395C53.4734 11.0248 53.2916 10.1848 53.2916 9.21931C53.2916 8.24132 53.4734 7.40126 53.837 6.69912C54.2132 5.98443 54.721 5.43902 55.3604 5.06287C56.0124 4.67418 56.7522 4.47984 57.5797 4.47984C58.1314 4.47984 58.6329 4.59895 59.0843 4.83718C59.5482 5.07541 59.9369 5.41394 60.2504 5.85278V0.248172H61.9242V13.7331H60.4384L60.382 12.4354C60.0686 12.8993 59.6673 13.2692 59.1783 13.545C58.7019 13.8083 58.169 13.94 57.5797 13.94ZM57.6361 12.3978C58.401 12.3978 59.0279 12.1157 59.5169 11.5514C60.0184 10.9872 60.2692 10.2098 60.2692 9.21931C60.2692 8.21625 60.0184 7.4326 59.5169 6.86838C59.0279 6.30416 58.401 6.02205 57.6361 6.02205C56.8713 6.02205 56.2381 6.30416 55.7366 6.86838C55.2351 7.4326 54.9843 8.21625 54.9843 9.21931C54.9843 10.2098 55.2351 10.9872 55.7366 11.5514C56.2381 12.1157 56.8713 12.3978 57.6361 12.3978Z" fill="#1C1D24"/><path d="M44.7479 13.7331V4.70553H46.2713L46.3654 5.87159C46.6287 5.49544 46.9797 5.16945 47.4186 4.8936C47.8699 4.61776 48.384 4.47984 48.9608 4.47984C49.9137 4.47984 50.6848 4.78703 51.2741 5.4014C51.8759 6.00324 52.1768 6.88092 52.1768 8.03444V13.7331H50.503V8.39178C50.503 7.60187 50.3274 7.01257 49.9764 6.62389C49.6253 6.22266 49.1677 6.02205 48.6034 6.02205C47.964 6.02205 47.4436 6.2352 47.0424 6.6615C46.6412 7.07526 46.4406 7.63322 46.4406 8.33536V13.7331H44.7479Z" fill="#1C1D24"/><path d="M39.6989 13.94C38.8463 13.94 38.094 13.7582 37.442 13.3946C36.79 13.0309 36.2822 12.4981 35.9186 11.7959C35.555 11.0812 35.3732 10.2224 35.3732 9.21931C35.3732 8.25386 35.555 7.42007 35.9186 6.71792C36.2822 6.00324 36.7774 5.45156 37.4044 5.06287C38.0438 4.67418 38.7773 4.47984 39.6048 4.47984C40.4324 4.47984 41.1345 4.68672 41.7113 5.10048C42.3006 5.50171 42.7457 6.04085 43.0466 6.71792C43.36 7.39499 43.5168 8.13475 43.5168 8.9372V9.38857H37.0282C37.0533 10.3916 37.3041 11.1565 37.7805 11.6831C38.2695 12.1971 38.9152 12.4542 39.7177 12.4542C40.3571 12.4542 40.8837 12.2975 41.2975 11.984C41.7238 11.6705 42.0811 11.2004 42.3695 10.5734L43.6484 11.4198C43.2221 12.2975 42.6767 12.9369 42.0122 13.3381C41.3602 13.7394 40.5891 13.94 39.6989 13.94ZM37.1222 8.03444H41.8617C41.7614 7.38245 41.5106 6.85584 41.1094 6.45462C40.7082 6.05339 40.2004 5.85278 39.586 5.85278C38.934 5.85278 38.3949 6.04086 37.9686 6.417C37.5423 6.78061 37.2602 7.31976 37.1222 8.03444Z" fill="#1C1D24"/><path d="M30.1986 13.7331V2.18534H26.061V0.567897H36.0477V2.18534H31.9289V13.7331H30.1986Z" fill="#1C1D24"/></svg>